<?xml version="1.0" encoding="iso-8859-1"?>
<!-- Generator: Adobe Illustrator 19.0.0, SVG Export Plug-In . SVG Version: 6.00 Build 0)  -->
<svg version="1.1" xmlns="http://www.w3.org/2000/svg" xmlns:xlink="http://www.w3.org/1999/xlink" x="0px" y="0px"
	 viewBox="0 0 34 34" style="enable-background:new 0 0 34 34;" xml:space="preserve">
<g id="Layer_3">
</g>
<g id="Layer_1">
</g>
<g id="Layer_2">
	<rect id="XMLID_30_" x="-1075.925" y="-41.455" style="display:none;fill:#25BBED;" width="1436" height="116.91"/>
	<g id="XMLID_37_" style="display:none;">
		<defs>
			<rect id="XMLID_36_" x="-1075.925" y="-41.455" width="1436" height="116.91"/>
		</defs>
		<clipPath id="XMLID_54_" style="display:inline;">
			<use xlink:href="#XMLID_36_"  style="overflow:visible;"/>
		</clipPath>
		<circle id="XMLID_32_" style="display:inline;clip-path:url(#XMLID_54_);fill:#FFFFFF;" cx="-811.77" cy="30.385" r="77.654"/>
		
			<circle id="XMLID_38_" style="display:inline;opacity:0.3;clip-path:url(#XMLID_54_);fill:#FFFFFF;" cx="-811.77" cy="30.385" r="87.015"/>
	</g>
	<g id="XMLID_1429_" style="display:none;">
		<g id="XMLID_5340_" style="display:inline;">
			<path id="XMLID_5374_" style="fill:#7B5B54;" d="M-834.181,60.929c0.191,0,0.358,0.032,0.502,0.095
				c0.144,0.063,0.264,0.147,0.36,0.251c0.096,0.104,0.167,0.223,0.215,0.355c0.048,0.133,0.072,0.268,0.073,0.406
				c0.001,0.138-0.023,0.274-0.071,0.406c-0.049,0.133-0.12,0.251-0.217,0.355c-0.096,0.104-0.216,0.188-0.359,0.251
				c-0.144,0.063-0.311,0.095-0.504,0.095h-0.885v0.922h-0.592v-3.133c0.249,0,0.495-0.001,0.74-0.002
				C-834.675,60.93-834.429,60.929-834.181,60.929z M-835.066,62.603h0.885c0.125,0,0.231-0.027,0.315-0.082
				c0.085-0.055,0.147-0.123,0.189-0.205c0.041-0.082,0.062-0.172,0.062-0.268s-0.021-0.185-0.063-0.268
				c-0.042-0.082-0.105-0.151-0.189-0.205c-0.084-0.055-0.189-0.082-0.314-0.082h-0.885V62.603z"/>
			<path id="XMLID_5371_" style="fill:#7B5B54;" d="M-830.392,63.477h-1.636l-0.268,0.59h-0.64l1.405-3.133h0.644l1.405,3.133
				h-0.644L-830.392,63.477z M-831.211,61.591l-0.581,1.335h1.164L-831.211,61.591z"/>
			<path id="XMLID_5368_" style="fill:#7B5B54;" d="M-826.261,64.067h-0.701l-0.913-1.047h-0.568v1.047h-0.592v-3.138
				c0.25,0,0.499,0.001,0.746,0.002s0.495,0.002,0.744,0.002c0.185,0.002,0.348,0.031,0.488,0.089
				c0.141,0.058,0.259,0.134,0.353,0.231c0.095,0.096,0.166,0.207,0.214,0.331c0.048,0.125,0.072,0.254,0.072,0.39
				c0,0.108-0.013,0.214-0.04,0.318c-0.026,0.104-0.071,0.201-0.132,0.289c-0.062,0.089-0.142,0.166-0.244,0.232
				c-0.101,0.066-0.226,0.114-0.375,0.144l0.948,1.071V64.067z M-828.444,61.484v1.003h0.898c0.094,0,0.174-0.014,0.242-0.043
				c0.068-0.028,0.123-0.066,0.166-0.114c0.044-0.047,0.077-0.101,0.098-0.161c0.021-0.06,0.031-0.121,0.031-0.183
				s-0.011-0.124-0.031-0.185c-0.021-0.061-0.054-0.114-0.098-0.161c-0.044-0.047-0.099-0.084-0.166-0.114
				c-0.068-0.029-0.148-0.044-0.242-0.044H-828.444z"/>
			<path id="XMLID_5366_" style="fill:#7B5B54;" d="M-825.05,61.471h-0.994v-0.538h2.578v0.538h-0.994v2.596h-0.59V61.471z"/>
			<path id="XMLID_5364_" style="fill:#7B5B54;" d="M-821.562,62.227l0.83-1.294h0.712v0.028l-1.248,1.811v1.294h-0.592v-1.294
				l-1.203-1.811v-0.028h0.703L-821.562,62.227z"/>
			<path id="XMLID_5362_" style="fill:#7B5B54;" d="M-818.943,60.934v2.587h1.61v0.546h-2.202v-3.133H-818.943z"/>
			<path id="XMLID_5359_" style="fill:#7B5B54;" d="M-814.469,63.477h-1.636l-0.269,0.59h-0.64l1.405-3.133h0.645l1.405,3.133
				h-0.645L-814.469,63.477z M-815.289,61.591l-0.581,1.335h1.165L-815.289,61.591z"/>
			<path id="XMLID_5357_" style="fill:#7B5B54;" d="M-811.06,60.929h0.592v3.138h-0.366v0.004l-1.648-2.117v2.113h-0.59v-3.133
				h0.479l1.533,1.943V60.929z"/>
			<path id="XMLID_5354_" style="fill:#7B5B54;" d="M-808.513,60.934c0.18,0,0.342,0.02,0.488,0.06
				c0.147,0.04,0.278,0.096,0.392,0.167c0.115,0.071,0.216,0.156,0.301,0.253c0.086,0.098,0.156,0.203,0.212,0.317
				c0.057,0.114,0.099,0.234,0.127,0.361c0.029,0.127,0.044,0.254,0.047,0.382c0.002,0.131-0.01,0.262-0.035,0.392
				c-0.026,0.131-0.066,0.255-0.122,0.373c-0.055,0.118-0.125,0.228-0.209,0.329c-0.085,0.101-0.185,0.189-0.303,0.262
				c-0.117,0.074-0.25,0.131-0.399,0.174c-0.15,0.042-0.315,0.063-0.497,0.063h-1.23v-3.133H-808.513z M-809.158,63.499h0.645
				c0.118,0,0.225-0.014,0.32-0.041c0.096-0.027,0.18-0.064,0.253-0.112c0.074-0.048,0.137-0.105,0.189-0.17
				c0.053-0.065,0.095-0.137,0.128-0.213c0.033-0.076,0.057-0.156,0.071-0.24c0.015-0.084,0.021-0.168,0.02-0.252
				c-0.004-0.122-0.026-0.242-0.064-0.358c-0.039-0.117-0.097-0.221-0.177-0.313c-0.079-0.092-0.18-0.166-0.301-0.222
				c-0.122-0.056-0.268-0.084-0.438-0.084h-0.645V63.499z"/>
			<path id="XMLID_5352_" style="fill:#7B5B54;" d="M-804.632,64.08h-0.614l-1.302-3.147h0.662l0.944,2.441l0.949-2.441h0.664
				L-804.632,64.08z"/>
			<path id="XMLID_5350_" style="fill:#7B5B54;" d="M-800.687,60.929h0.592v3.138h-0.367v0.004l-1.648-2.117v2.113h-0.59v-3.133
				h0.479l1.533,1.943V60.929z"/>
			<path id="XMLID_5348_" style="fill:#7B5B54;" d="M-799.384,63.785c0-0.071,0.016-0.131,0.049-0.178
				c0.032-0.047,0.072-0.083,0.119-0.106c0.048-0.023,0.1-0.035,0.156-0.035c0.056,0,0.108,0.012,0.155,0.035
				c0.048,0.023,0.087,0.059,0.119,0.106s0.048,0.107,0.048,0.178s-0.016,0.131-0.048,0.178s-0.072,0.083-0.119,0.106
				c-0.047,0.023-0.099,0.035-0.155,0.035c-0.056,0-0.108-0.012-0.156-0.035c-0.047-0.023-0.086-0.059-0.119-0.106
				C-799.368,63.916-799.384,63.857-799.384,63.785z"/>
			<path id="XMLID_5346_" style="fill:#7B5B54;" d="M-795.262,63.674c-0.161,0.159-0.343,0.276-0.546,0.352
				c-0.203,0.076-0.418,0.114-0.645,0.114c-0.194,0-0.369-0.021-0.526-0.063c-0.157-0.042-0.297-0.1-0.42-0.175
				c-0.122-0.074-0.228-0.162-0.318-0.264c-0.089-0.102-0.163-0.213-0.222-0.333s-0.102-0.247-0.131-0.379
				c-0.03-0.133-0.044-0.267-0.044-0.402c-0.002-0.135,0.012-0.271,0.043-0.405c0.03-0.135,0.074-0.263,0.134-0.386
				c0.059-0.122,0.135-0.236,0.227-0.341c0.091-0.105,0.198-0.195,0.322-0.272c0.123-0.076,0.262-0.137,0.418-0.18
				c0.155-0.044,0.327-0.066,0.516-0.066c0.214,0,0.419,0.04,0.614,0.119c0.195,0.079,0.374,0.199,0.537,0.359l-0.395,0.38
				c-0.103-0.1-0.221-0.175-0.352-0.223c-0.132-0.048-0.267-0.072-0.404-0.072c-0.189,0-0.352,0.032-0.488,0.096
				c-0.136,0.064-0.248,0.148-0.335,0.251c-0.087,0.103-0.152,0.219-0.194,0.348c-0.041,0.129-0.062,0.259-0.06,0.39
				c0.002,0.13,0.022,0.258,0.061,0.385c0.04,0.127,0.103,0.24,0.189,0.341s0.198,0.182,0.334,0.244
				c0.135,0.062,0.3,0.093,0.493,0.093c0.068,0,0.138-0.007,0.21-0.021s0.141-0.034,0.21-0.061c0.068-0.027,0.133-0.06,0.196-0.099
				c0.063-0.039,0.12-0.085,0.173-0.138L-795.262,63.674z"/>
			<path id="XMLID_5343_" style="fill:#7B5B54;" d="M-793.48,60.872c0.179,0,0.343,0.022,0.493,0.066
				c0.151,0.044,0.285,0.104,0.404,0.18c0.119,0.077,0.224,0.167,0.314,0.271c0.09,0.104,0.164,0.217,0.223,0.339
				c0.058,0.122,0.102,0.25,0.131,0.385c0.028,0.135,0.042,0.27,0.04,0.405c-0.002,0.135-0.016,0.27-0.046,0.402
				c-0.029,0.133-0.072,0.259-0.13,0.379c-0.058,0.12-0.13,0.232-0.217,0.334c-0.087,0.103-0.19,0.192-0.309,0.267
				c-0.119,0.075-0.253,0.134-0.404,0.176c-0.15,0.042-0.316,0.063-0.5,0.063s-0.351-0.021-0.502-0.062
				c-0.151-0.042-0.286-0.099-0.405-0.174c-0.119-0.074-0.223-0.162-0.311-0.263c-0.088-0.101-0.161-0.212-0.22-0.332
				c-0.058-0.12-0.101-0.247-0.13-0.38c-0.028-0.133-0.043-0.268-0.043-0.405s0.015-0.273,0.044-0.407
				c0.03-0.135,0.074-0.263,0.133-0.386c0.06-0.122,0.134-0.236,0.223-0.34c0.089-0.104,0.193-0.194,0.312-0.271
				c0.119-0.076,0.254-0.137,0.404-0.18C-793.826,60.894-793.661,60.872-793.48,60.872z M-793.48,61.408
				c-0.185,0-0.343,0.034-0.474,0.102c-0.131,0.068-0.239,0.155-0.322,0.263c-0.084,0.108-0.144,0.228-0.181,0.362
				c-0.038,0.133-0.054,0.266-0.052,0.399c0.003,0.128,0.024,0.256,0.063,0.382c0.039,0.127,0.099,0.241,0.18,0.342
				s0.187,0.183,0.315,0.246c0.129,0.063,0.286,0.094,0.471,0.094c0.122,0,0.232-0.014,0.331-0.044
				c0.098-0.029,0.185-0.069,0.261-0.119c0.076-0.05,0.14-0.11,0.194-0.179c0.054-0.069,0.098-0.143,0.133-0.223
				c0.035-0.079,0.061-0.162,0.077-0.248c0.016-0.086,0.026-0.172,0.027-0.258c0.002-0.087-0.006-0.176-0.021-0.265
				c-0.016-0.09-0.042-0.176-0.077-0.259c-0.035-0.083-0.08-0.161-0.134-0.233c-0.055-0.072-0.12-0.135-0.197-0.189
				c-0.077-0.054-0.165-0.096-0.263-0.127C-793.247,61.423-793.358,61.408-793.48,61.408z"/>
			<path id="XMLID_5341_" style="fill:#7B5B54;" d="M-788.484,61.799l-1.02,1.359h-0.118l-0.997-1.363v2.277h-0.592v-3.133h0.682
				l0.978,1.348l0.982-1.348h0.674v3.133h-0.59V61.799z"/>
		</g>
		<g id="XMLID_5334_" style="display:inline;">
			<circle id="XMLID_5339_" style="fill:#EF5BA1;" cx="-822.201" cy="67.835" r="0.839"/>
			<circle id="XMLID_5338_" style="fill:#00B9F2;" cx="-817.173" cy="67.835" r="0.839"/>
			<circle id="XMLID_5337_" style="fill:#C3D947;" cx="-812.144" cy="67.835" r="0.839"/>
			<circle id="XMLID_5336_" style="fill:#FFE600;" cx="-807.116" cy="67.835" r="0.839"/>
			<circle id="XMLID_5335_" style="fill:#7B5B54;" cx="-802.087" cy="67.835" r="0.839"/>
		</g>
		<g id="XMLID_5187_" style="display:inline;">
			<g id="XMLID_5323_">
				<g id="XMLID_5329_">
					<polygon id="XMLID_5333_" style="fill:#FFE600;" points="-804.614,22.913 -819.45,22.913 -821.552,-15.406 -802.511,-15.406 
											"/>
					<path id="XMLID_5330_" style="fill:#7B5B54;" d="M-804.228,23.315h-15.607l-2.147-39.124h19.901l-0.023,0.424L-804.228,23.315z
						 M-819.064,22.512H-805l2.059-37.516h-18.181L-819.064,22.512z"/>
				</g>
				<path id="XMLID_5328_" style="fill:#7B5B54;" d="M-807.503-0.083l0.014-1.779c0.014-0.561-0.449-1.021-1.018-1.01l0,0
					c-0.525,0.01-0.953,0.42-0.979,0.938l-0.082,1.641L-807.503-0.083z"/>
				<path id="XMLID_5327_" style="fill:#7B5B54;" d="M-811.006-5.621l0.014-1.511c0.014-0.561-0.449-1.021-1.018-1.01l0,0
					c-0.525,0.01-0.953,0.42-0.979,0.938l-0.082,1.641L-811.006-5.621z"/>
				<path id="XMLID_5326_" style="fill:#7B5B54;" d="M-816.886-0.083l-0.014-1.779c-0.014-0.561,0.449-1.021,1.018-1.01l0,0
					c0.525,0.01,0.953,0.42,0.979,0.938l0.082,1.641L-816.886-0.083z"/>
				<g id="XMLID_5324_">
					<polygon id="XMLID_5325_" style="fill:#ECD100;" points="-820.96,-12.044 -820.806,-9.271 -803.256,-9.271 -803.112,-11.894 
											"/>
				</g>
			</g>
			<g id="XMLID_5318_">
				<path id="XMLID_5322_" style="fill:#EF5BA1;" d="M-837.131-5.075l2.355-14.698c0.212-1.323,1.845-1.64,2.474-0.48l7.114,13.129
					L-837.131-5.075z"/>
				<path id="XMLID_5319_" style="fill:#7B5B54;" d="M-837.675-4.467l2.577-16.086c0.244-1.525,2.127-1.891,2.851-0.553
					l7.788,14.372c0,0.001-0.001,0.001-0.001,0.003l-13.214,2.267C-837.674-4.464-837.675-4.466-837.675-4.467z M-834.268-20.162
					l-2.319,14.474c0,0.001,0.001,0.002,0.001,0.002l10.664-1.83c0.001,0,0.002-0.002,0.001-0.003l-6.994-12.907
					C-833.258-21.059-834.152-20.886-834.268-20.162z"/>
			</g>
			<g id="XMLID_5313_">
				<path id="XMLID_5317_" style="fill:#F287B7;" d="M-828.368-12.993c0,0-2.546,6.613-8.763,7.918
					c0.594-3.709,0.917-5.722,0.917-5.722c4.725-1.911,5.626-6.292,5.626-6.292L-828.368-12.993z"/>
				<path id="XMLID_5314_" style="fill:#7B5B54;" d="M-837.679-4.44l1.08-6.743l0.241-0.097c4.424-1.789,5.308-5.762,5.343-5.93
					l0.246-1.167l2.896,5.343l-0.096,0.25c-0.108,0.28-2.714,6.874-9.085,8.212L-837.679-4.44z M-835.83-10.415l-0.75,4.682
					c4.823-1.357,7.204-6.104,7.709-7.23l-1.613-2.977C-831.047-14.486-832.485-11.861-835.83-10.415z"/>
			</g>
			<g id="XMLID_5308_">
				<polygon id="XMLID_5312_" style="fill:#A9CF38;" points="-830.864,32.218 -836.185,-1.207 -825.179,-2.99 -820.037,29.258 				
					"/>
				<path id="XMLID_5309_" style="fill:#7B5B54;" d="M-831.211,32.838L-836.7-1.64l11.876-1.924l5.295,33.209L-831.211,32.838z
					 M-835.67-0.774l5.154,32.371l9.972-2.726l-4.989-31.287L-835.67-0.774z"/>
			</g>
			<g id="XMLID_5306_">
				<polygon id="XMLID_5307_" style="fill:#8AAC2D;" points="-835.67,-0.774 -835.336,1.327 -825.239,-0.571 -825.602,-2.887 				
					"/>
			</g>
			<path id="XMLID_5305_" style="fill:#7B5B54;" d="M-830.873,6.065l-0.182-2.254c-0.068-0.71,0.386-1.343,0.997-1.391l0,0
				c0.564-0.044,1.062,0.429,1.138,1.083l0.242,2.072L-830.873,6.065z"/>
			<g id="XMLID_5300_">
				<polygon id="XMLID_5304_" style="fill:#A9CF38;" points="-838.345,-0.866 -823.434,-2.99 -824.019,-7.124 -838.876,-4.907 				
					"/>
				<path id="XMLID_5301_" style="fill:#7B5B54;" d="M-838.714-0.298l-0.664-5.05l15.723-2.346l0.728,5.148L-838.714-0.298z
					 M-838.374-4.466l0.399,3.032l14.035-2l-0.441-3.121L-838.374-4.466z"/>
			</g>
			<g id="XMLID_5295_">
				<path id="XMLID_5299_" style="fill:#F287B7;" d="M-786.932-5.075l-2.355-14.698c-0.212-1.323-1.845-1.64-2.474-0.48
					l-7.114,13.129L-786.932-5.075z"/>
				<path id="XMLID_5296_" style="fill:#7B5B54;" d="M-786.388-4.464l-13.218-2.268l7.754-14.31
					c0.736-1.359,2.649-0.988,2.897,0.562L-786.388-4.464z M-798.144-7.516l10.668,1.83l-2.314-14.441
					c-0.118-0.736-1.026-0.912-1.376-0.267L-798.144-7.516z"/>
			</g>
			<g id="XMLID_5290_">
				<path id="XMLID_5294_" style="fill:#EF5BA1;" d="M-795.695-12.993c0,0,2.546,6.613,8.763,7.918
					c-0.594-3.709-0.917-5.722-0.917-5.722c-4.725-1.911-5.626-6.292-5.626-6.292L-795.695-12.993z"/>
				<path id="XMLID_5291_" style="fill:#7B5B54;" d="M-786.384-4.44l-0.626-0.131c-6.371-1.338-8.977-7.932-9.085-8.212l-0.096-0.25
					l2.901-5.353l0.242,1.178c0.035,0.167,0.92,4.139,5.343,5.928l0.241,0.097L-786.384-4.44z M-795.193-12.963
					c0.504,1.126,2.886,5.872,7.709,7.23l-0.75-4.682c-3.344-1.446-4.782-4.072-5.345-5.525L-795.193-12.963z"/>
			</g>
			<g id="XMLID_5285_">
				<polygon id="XMLID_5289_" style="fill:#A9CF38;" points="-793.2,32.218 -787.878,-1.207 -798.885,-2.99 -804.027,29.258 				"/>
				<path id="XMLID_5286_" style="fill:#7B5B54;" d="M-792.853,32.838l-11.682-3.193l5.295-33.209l11.876,1.924L-792.853,32.838z
					 M-803.519,28.872l9.972,2.726l5.154-32.371l-10.136-1.642L-803.519,28.872z"/>
			</g>
			<g id="XMLID_5283_">
				<polygon id="XMLID_5284_" style="fill:#8AAC2D;" points="-788.4,-0.732 -788.728,1.325 -798.813,-0.642 -798.437,-2.99 				"/>
			</g>
			<g id="XMLID_5278_">
				<polygon id="XMLID_5282_" style="fill:#FFE600;" points="-791.698,11.344 -795.246,10.184 -794.872,7.26 -798.934,6.504 
					-799.433,9.15 -802.302,8.961 -801.927,5.874 -806.418,5.496 -806.418,8.709 -809.973,8.709 -809.973,5.496 -814.839,5.496 
					-814.839,8.709 -817.645,8.709 -817.645,5.496 -822.136,5.874 -821.762,8.961 -824.631,9.15 -825.13,6.504 -829.191,7.26 
					-828.817,10.184 -832.365,11.344 -833.072,31.706 -817.645,30.191 -806.418,30.191 -790.992,31.706 				"/>
				<path id="XMLID_5279_" style="fill:#7B5B54;" d="M-790.533,32.265l-15.903-1.563h-11.191l-15.903,1.563l0.74-21.313l3.483-1.138
					l-0.381-2.979l4.899-0.912l0.507,2.692l2.02-0.133l-0.373-3.078l5.429-0.457v3.251h1.93V4.985h5.742v3.213h2.678V4.946
					l5.429,0.457l-0.373,3.078l2.02,0.133l0.507-2.692l4.899,0.912l-0.381,2.979l3.483,1.138L-790.533,32.265z M-817.664,29.679
					l11.282,0.002l14.932,1.467l-0.674-19.411l-3.613-1.181l0.367-2.87l-3.224-0.6l-0.49,2.6l-3.718-0.245l0.375-3.095l-3.552-0.299
					v3.174h-4.432V6.008h-3.988v3.213h-3.684V6.046l-3.552,0.299l0.375,3.095l-3.718,0.245l-0.49-2.6l-3.224,0.6l0.367,2.87
					l-3.614,1.181l-0.674,19.411L-817.664,29.679z"/>
			</g>
			<g id="XMLID_5273_">
				<polygon id="XMLID_5277_" style="fill:#00B9F2;" points="-785.524,35 -780.846,19.31 -791.566,15.899 -795.594,31.706 				"/>
				<path id="XMLID_5274_" style="fill:#7B5B54;" d="M-785.245,35.623l-10.896-3.564l4.277-16.785l11.587,3.687L-785.245,35.623z
					 M-795.047,31.354l9.244,3.024l4.388-14.718l-9.854-3.135L-795.047,31.354z"/>
			</g>
			<g id="XMLID_5268_">
				<polygon id="XMLID_5272_" style="fill:#00B9F2;" points="-778.214,20.675 -793.905,15.103 -792.541,8.395 -788.35,9.76 
					-788.935,12.488 -786.498,13.398 -785.621,10.556 -781.138,12.375 -782.21,15.217 -779.481,16.24 -778.507,13.512 
					-775.778,14.876 				"/>
				<path id="XMLID_5269_" style="fill:#7B5B54;" d="M-777.985,21.291l-16.442-5.838l1.565-7.693l5.041,1.641l-0.589,2.747
					l1.642,0.613l0.88-2.854l5.342,2.168l-1.068,2.83l1.882,0.705l0.99-2.771l3.56,1.78L-777.985,21.291z M-793.383,14.754
					l14.939,5.304l2.069-4.924l-1.897-0.949l-0.959,2.686l-3.576-1.341l1.077-2.855l-3.625-1.471l-0.874,2.831l-3.231-1.206
					l0.581-2.711l-3.34-1.088L-793.383,14.754z"/>
			</g>
			<path id="XMLID_5267_" style="fill:#7B5B54;" d="M-786.815,24.938l0.522-1.826c0.194-0.678-0.136-1.407-0.725-1.604l0,0
				c-0.544-0.181-1.115,0.16-1.307,0.781l-0.609,1.967L-786.815,24.938z"/>
			<path id="XMLID_5266_" style="fill:#7B5B54;" d="M-793.19,6.065l0.182-2.254c0.068-0.71-0.386-1.343-0.997-1.391l0,0
				c-0.564-0.044-1.062,0.429-1.138,1.083l-0.242,2.072L-793.19,6.065z"/>
			<g id="XMLID_5264_">
				<polygon id="XMLID_5265_" style="fill:#379FC3;" points="-781.526,20.034 -782.016,21.679 -791.726,18.323 -791.268,16.525 				
					"/>
			</g>
			<g id="XMLID_5259_">
				<polygon id="XMLID_5263_" style="fill:#A9CF38;" points="-785.719,-0.866 -800.629,-2.99 -800.045,-7.124 -785.187,-4.907 				
					"/>
				<path id="XMLID_5260_" style="fill:#7B5B54;" d="M-785.349-0.298l-15.787-2.249l0.728-5.148l15.723,2.346L-785.349-0.298z
					 M-800.122-3.433l14.035,2l0.399-3.032l-13.992-2.088L-800.122-3.433z"/>
			</g>
			<g id="XMLID_5254_">
				<polygon id="XMLID_5258_" style="fill:#00B9F2;" points="-838.54,35 -843.218,19.31 -832.498,15.899 -828.469,31.706 				"/>
				<path id="XMLID_5255_" style="fill:#7B5B54;" d="M-838.819,35.623l-4.968-16.662l11.587-3.687l4.277,16.785L-838.819,35.623z
					 M-842.649,19.66l4.388,14.718l9.244-3.024l-3.779-14.829L-842.649,19.66z"/>
			</g>
			<g id="XMLID_5249_">
				<polygon id="XMLID_5253_" style="fill:#00B9F2;" points="-845.849,20.675 -830.159,15.103 -831.523,8.395 -835.714,9.76 
					-835.129,12.488 -837.565,13.398 -838.442,10.556 -842.925,12.375 -841.853,15.217 -844.582,16.24 -845.557,13.512 
					-848.286,14.876 				"/>
				<path id="XMLID_5250_" style="fill:#7B5B54;" d="M-846.079,21.291l-2.804-6.673l3.56-1.78l0.99,2.771l1.882-0.705l-1.068-2.83
					l5.342-2.168l0.881,2.854l1.642-0.613l-0.589-2.747l5.041-1.641l1.565,7.693L-846.079,21.291z M-847.689,15.134l2.069,4.924
					l14.939-5.304l-1.164-5.723l-3.34,1.088l0.581,2.711l-3.231,1.206l-0.874-2.831l-3.625,1.471l1.077,2.855l-3.576,1.341
					l-0.959-2.686L-847.689,15.134z"/>
			</g>
			<path id="XMLID_5248_" style="fill:#7B5B54;" d="M-837.249,24.938l-0.522-1.826c-0.194-0.678,0.136-1.407,0.725-1.604l0,0
				c0.544-0.181,1.115,0.16,1.307,0.781l0.609,1.967L-837.249,24.938z"/>
			<g id="XMLID_5246_">
				<polygon id="XMLID_5247_" style="fill:#379FC3;" points="-842.538,20.034 -842.047,21.679 -832.337,18.323 -832.784,16.57 				
					"/>
			</g>
			<path id="XMLID_5245_" style="fill:#7B5B54;" d="M-806.111,20.313v8.694h-11.841v-8.694c0-3.817,2.652-6.907,5.92-6.907
				c1.634,0,3.114,0.774,4.187,2.023C-806.775,16.677-806.111,18.403-806.111,20.313z"/>
			<path id="XMLID_5244_" style="fill:#604741;" d="M-806.111,20.313v8.694h-3.269v-5.809c0-7.47-2.652-9.793-2.652-9.793
				c1.634,0,3.114,0.774,4.187,2.023C-806.775,16.677-806.111,18.403-806.111,20.313z"/>
			<g id="XMLID_5242_">
				<polygon id="XMLID_5243_" style="fill:#ECD100;" points="-828.591,10.642 -827.096,16.354 -830.159,17.832 -827.096,31.108 
					-828.469,31.706 -831.945,16.273 -829.637,15.453 -830.489,11.262 				"/>
			</g>
			<g id="XMLID_5240_">
				<polygon id="XMLID_5241_" style="fill:#ECD100;" points="-795.434,10.654 -797.023,16.354 -793.961,17.832 -797.023,31.108 
					-795.752,30.526 -792.118,16.273 -794.427,15.453 -793.574,11.262 				"/>
			</g>
			<g id="XMLID_5235_">
				<path id="XMLID_5239_" style="fill:#A9CF38;" d="M-777.81,39.715h-66.899c0,0,8.268-6.893,20.306-10.166h0.006
					c3.754-1.025,7.873-1.694,12.223-1.694C-793.865,27.856-777.81,39.715-777.81,39.715z"/>
				<path id="XMLID_5236_" style="fill:#7B5B54;" d="M-775.778,40.427h-70.756l1.604-1.337c0.083-0.069,8.473-6.986,20.446-10.241
					l0.046-0.011c4.13-1.124,8.256-1.694,12.264-1.694c18.204,0,34.402,11.811,34.564,11.93L-775.778,40.427z M-842.708,39.004
					h62.682c-4.861-3.097-17.885-10.436-32.147-10.436c-3.966,0-8.052,0.566-12.142,1.683l-0.047,0.011
					C-832.956,32.605-839.665,36.846-842.708,39.004z"/>
			</g>
			<g id="XMLID_5233_">
				<path id="XMLID_5234_" style="fill:#8AAC2D;" d="M-780.026,39.004h-8.521c-23.502-11.499-34.466-9.555-35.163-9.469
					c3.754-1.025,7.187-0.967,11.537-0.967C-794.948,28.567-780.026,39.004-780.026,39.004z"/>
			</g>
			<g id="XMLID_5228_">
				<path id="XMLID_5232_" style="fill:#F287B7;" d="M-817.838,28.305l-1.62,0.703l-3.166,1.378l-1.07-15.168
					c0.471-0.003,0.956,0.034,1.438,0.123c2.225,0.396,4.356,1.815,4.374,4.953L-817.838,28.305z"/>
				<path id="XMLID_5229_" style="fill:#7B5B54;" d="M-823.014,31.101l-1.156-16.392l0.473-0.003c0.51-0.001,1.024,0.04,1.51,0.129
					c2.997,0.533,4.727,2.521,4.744,5.454l0.046,8.37L-823.014,31.101z M-823.217,15.74l0.982,13.93l3.956-1.72l-0.042-7.654
					c-0.018-3.256-2.515-4.186-4.001-4.45C-822.613,15.792-822.912,15.757-823.217,15.74z"/>
			</g>
			<g id="XMLID_5223_">
				<path id="XMLID_5227_" style="fill:#F287B7;" d="M-800.255,15.217l-1.07,15.168l-4.786-2.081l0.044-8.012
					c0.012-1.975,0.857-3.271,2.041-4.056C-802.924,15.5-801.533,15.21-800.255,15.217z"/>
				<path id="XMLID_5224_" style="fill:#7B5B54;" d="M-800.936,31.101l-5.616-2.442l0.046-8.37c0.012-1.969,0.794-3.524,2.263-4.497
					c1.049-0.701,2.449-1.087,3.945-1.087c0.015,0,0.03,0,0.045,0l0.474,0.002L-800.936,31.101z M-805.671,27.95l3.956,1.719
					l0.982-13.929c-1.177,0.065-2.256,0.392-3.076,0.941c-1.199,0.794-1.811,2.01-1.82,3.615L-805.671,27.95z"/>
			</g>
			<g id="XMLID_5221_">
				<path id="XMLID_5222_" style="fill:#EF5BA1;" d="M-800.732,15.74l-0.982,13.929l-2.221-12.902
					C-803.24,16.281-801.977,15.74-800.732,15.74z"/>
			</g>
			<g id="XMLID_5219_">
				<path id="XMLID_5220_" style="fill:#EF5BA1;" d="M-817.843,27.798l-1.061,0.424l-3.21-12.336
					c2.225,0.396,4.214,1.269,4.232,4.407L-817.843,27.798z"/>
			</g>
			<polygon id="XMLID_5218_" style="fill:#FFFFFF;" points="-838.374,-4.466 -824.383,-6.554 -824.235,-5.51 -838.26,-3.593 			"/>
			<polygon id="XMLID_5217_" style="fill:#FFFFFF;" points="-785.693,-4.466 -799.685,-6.554 -799.832,-5.51 -785.808,-3.593 			"/>
			<polygon id="XMLID_5216_" style="fill:#FFFFFF;" points="-828.693,7.685 -828.603,8.395 -825.356,7.685 -825.469,7.085 			"/>
			<polygon id="XMLID_5215_" style="fill:#FFFFFF;" points="-821.636,6.345 -821.546,7.085 -818.084,6.715 -818.084,6.046 			"/>
			<polygon id="XMLID_5214_" style="fill:#FFFFFF;" points="-814.4,6.008 -814.4,6.566 -810.412,6.733 -810.412,6.008 			"/>
			<polygon id="XMLID_5213_" style="fill:#FFFFFF;" points="-805.98,6.046 -805.98,6.733 -802.517,7.085 -802.428,6.345 			"/>
			<polygon id="XMLID_5212_" style="fill:#FFFFFF;" points="-798.594,7.085 -798.708,7.76 -795.461,8.395 -795.37,7.685 			"/>
			<polygon id="XMLID_5211_" style="fill:#FFFFFF;" points="-792.219,9.031 -792.453,10.184 -789.126,11.271 -788.879,10.119 			"/>
			<polygon id="XMLID_5210_" style="fill:#FFFFFF;" points="-785.355,11.205 -785.633,12.106 -782.076,13.591 -781.731,12.676 			
				"/>
			<polygon id="XMLID_5209_" style="fill:#FFFFFF;" points="-778.272,14.186 -778.526,14.897 -776.696,15.899 -776.375,15.134 			
				"/>
			<polygon id="XMLID_5208_" style="fill:#FFFFFF;" points="-831.845,9.031 -831.61,10.184 -834.938,11.271 -835.185,10.119 			"/>
			<polygon id="XMLID_5207_" style="fill:#FFFFFF;" points="-838.708,11.205 -838.43,12.106 -841.988,13.591 -842.333,12.676 			"/>
			<polygon id="XMLID_5206_" style="fill:#FFFFFF;" points="-845.791,14.186 -845.537,14.897 -847.367,15.899 -847.689,15.134 			
				"/>
			<g id="XMLID_5188_">
				<g id="XMLID_5201_">
					<path id="XMLID_5205_" style="fill:#FFE600;" d="M-796.596-25.183c-0.531,0-0.961,0.391-0.961,0.874
						c0,0.324,0.194,0.606,0.481,0.757c-0.677,0.986-2.293,3.118-3.546,3.032c-2.425-0.167-1.679-5.09-1.343-6.811
						c0.041,0.004,0.082,0.006,0.124,0.006c0.673,0,1.219-0.496,1.219-1.109c0-0.612-0.546-1.109-1.219-1.109
						c-0.673,0-1.219,0.496-1.219,1.109c0,0.485,0.344,0.897,0.821,1.047c-0.641,1.51-2.629,5.599-5.338,5.52
						c-3.11-0.091-4.147-8.362-4.389-10.852c0.73-0.029,1.312-0.575,1.312-1.246c0-0.69-0.615-1.249-1.373-1.249
						c-0.758,0-1.373,0.559-1.373,1.249c0,0.624,0.504,1.14,1.162,1.233c-0.19,2.534-1.079,11.19-4.316,10.894
						c-3.072-0.281-4.745-4.272-5.204-5.55c0.476-0.151,0.819-0.562,0.819-1.046c0-0.612-0.546-1.109-1.219-1.109
						s-1.219,0.496-1.219,1.109c0,0.612,0.546,1.109,1.219,1.109c0.019,0,0.037-0.002,0.056-0.003
						c0.721,4.712,0.386,6.51-1.104,6.793c-1.13,0.214-2.882-1.852-3.718-2.943c0.329-0.156,0.554-0.469,0.554-0.831
						c0-0.517-0.461-0.937-1.03-0.937c-0.569,0-1.03,0.419-1.03,0.937c0,0.517,0.461,0.937,1.03,0.937
						c0.08,0,0.158-0.009,0.233-0.025c0.901,1.513,1.953,5.173,2.146,5.901c0.223,0.84,0.954,0.504,1.273,0.405
						c2.807-0.866,6.875-1.448,11.749-1.448s10.677,1.189,11.901,1.535c0.996,0.281,1.166-0.808,1.273-1.216
						c0.419-1.592,1.53-4.167,2.006-5.24c0.071,0.015,0.145,0.024,0.222,0.024c0.531,0,0.961-0.391,0.961-0.874
						S-796.065-25.183-796.596-25.183z"/>
					<path id="XMLID_5202_" style="fill:#7B5B54;" d="M-812.026-35.214c0.758,0,1.373,0.559,1.373,1.249
						c0,0.671-0.582,1.217-1.312,1.246c0.242,2.489,1.279,10.761,4.389,10.852c0.026,0.001,0.052,0.001,0.078,0.001
						c2.67,0,4.626-4.026,5.261-5.521c-0.478-0.15-0.821-0.562-0.821-1.047c0-0.612,0.546-1.109,1.219-1.109
						s1.219,0.496,1.219,1.109c0,0.612-0.546,1.109-1.219,1.109c-0.042,0-0.083-0.002-0.124-0.006
						c-0.336,1.721-1.082,6.644,1.343,6.811c0.025,0.002,0.05,0.003,0.075,0.003c1.241,0,2.807-2.068,3.471-3.034
						c-0.287-0.151-0.481-0.433-0.481-0.757c0-0.483,0.43-0.874,0.961-0.874c0.531,0,0.961,0.391,0.961,0.874
						c0,0.483-0.43,0.874-0.961,0.874c-0.076,0-0.151-0.009-0.222-0.024c-0.476,1.072-1.587,3.647-2.006,5.24
						c-0.095,0.363-0.24,1.262-0.969,1.262c-0.092,0-0.193-0.014-0.305-0.046c-1.224-0.345-7.027-1.535-11.901-1.535
						s-8.942,0.582-11.749,1.448c-0.154,0.047-0.402,0.15-0.644,0.15c-0.261,0-0.514-0.119-0.629-0.555
						c-0.193-0.728-1.245-4.389-2.146-5.901c-0.075,0.016-0.153,0.025-0.233,0.025c-0.569,0-1.03-0.419-1.03-0.937
						c0-0.517,0.461-0.937,1.03-0.937c0.569,0,1.03,0.419,1.03,0.937c0,0.361-0.225,0.674-0.554,0.831
						c0.795,1.038,2.42,2.958,3.549,2.958c0.058,0,0.114-0.005,0.169-0.015c1.491-0.282,1.826-2.081,1.104-6.793
						c-0.019,0.001-0.037,0.003-0.056,0.003c-0.673,0-1.219-0.496-1.219-1.109c0-0.612,0.546-1.109,1.219-1.109
						s1.219,0.496,1.219,1.109c0,0.485-0.342,0.896-0.819,1.046c0.459,1.278,2.132,5.269,5.204,5.55
						c0.054,0.005,0.108,0.007,0.161,0.007c3.106,0,3.968-8.41,4.155-10.901c-0.658-0.092-1.162-0.608-1.162-1.233
						C-813.399-34.655-812.784-35.214-812.026-35.214 M-812.026-35.931c-1.152,0-2.09,0.882-2.09,1.966
						c0,0.755,0.444,1.414,1.119,1.743c-0.496,5.726-1.871,9.674-3.394,9.674c-0.031,0-0.063-0.001-0.096-0.004
						c-2.312-0.212-3.772-3.044-4.379-4.521c0.402-0.339,0.646-0.83,0.646-1.361c0-1.007-0.869-1.826-1.936-1.826
						c-1.068,0-1.936,0.819-1.936,1.826c0,0.818,0.574,1.512,1.361,1.744c0.735,5.196-0.2,5.374-0.607,5.451
						c-0.01,0.002-0.022,0.003-0.036,0.003c-0.416,0-1.35-0.672-2.567-2.156c0.186-0.265,0.29-0.581,0.29-0.915
						c0-0.912-0.784-1.654-1.747-1.654s-1.747,0.742-1.747,1.654c0,0.853,0.686,1.558,1.563,1.645
						c0.782,1.554,1.661,4.565,1.87,5.352c0.181,0.681,0.675,1.088,1.322,1.088c0.314,0,0.593-0.094,0.778-0.156l0.078-0.026
						c2.959-0.913,7.056-1.416,11.538-1.416c4.84,0,10.528,1.175,11.706,1.508c0.171,0.048,0.339,0.073,0.499,0.073
						c1.226,0,1.536-1.278,1.638-1.698l0.025-0.099c0.358-1.361,1.255-3.502,1.777-4.697c0.811-0.112,1.436-0.775,1.436-1.575
						c0-0.878-0.753-1.591-1.678-1.591s-1.678,0.714-1.678,1.591c0,0.304,0.092,0.595,0.256,0.844
						c-1.136,1.536-2.073,2.23-2.528,2.23l-0.025-0.001c-0.242-0.017-0.417-0.111-0.566-0.305c-0.563-0.734-0.642-2.672-0.22-5.125
						c0.835-0.203,1.454-0.919,1.454-1.769c0-1.007-0.869-1.826-1.936-1.826c-1.068,0-1.936,0.819-1.936,1.826
						c0,0.522,0.234,1.004,0.622,1.342c-1.061,2.275-2.684,4.51-4.345,4.51l-0.057-0.001c-1.566-0.046-3.004-3.868-3.631-9.58
						c0.74-0.303,1.251-0.996,1.251-1.801C-809.936-35.049-810.874-35.931-812.026-35.931L-812.026-35.931z"/>
				</g>
				<g id="XMLID_5196_">
					<path id="XMLID_5200_" style="fill:#FFE600;" d="M-822.292-12.116h-1.804c0,0-0.69-0.029-0.69-0.871c0-0.842,0-2.098,0-2.098
						s0-1.016,1.506-1.356c1.558-0.352,7.405-1.427,11.296-1.27s7.648,0.386,9.942,0.938c2.294,0.552,2.749,0.529,2.749,1.909
						s0.015,1.454,0,1.943c-0.01,0.316-0.081,0.803-1.075,0.803C-801.581-12.116-822.292-12.116-822.292-12.116z"/>
					<path id="XMLID_5197_" style="fill:#7B5B54;" d="M-812.795-17.726c0.278,0,0.548,0.005,0.81,0.016
						c3.891,0.157,7.648,0.386,9.942,0.938c2.294,0.552,2.749,0.529,2.749,1.909c0,1.38,0.015,1.454,0,1.943
						c-0.01,0.316-0.081,0.803-1.075,0.803c-1.214,0-21.924,0-21.924,0h-1.804c0,0-0.69-0.029-0.69-0.871c0-0.842,0-2.098,0-2.098
						s0-1.016,1.506-1.356C-821.827-16.769-816.643-17.726-812.795-17.726 M-812.795-18.443L-812.795-18.443
						c-4.049,0-9.425,1.028-10.644,1.303c-1.63,0.368-2.065,1.465-2.065,2.056v2.098c0,1.123,0.824,1.564,1.378,1.587
						c0.01,0,0.02,0.001,0.03,0.001h1.804h21.924c1.125,0,1.761-0.532,1.791-1.498c0.009-0.292,0.008-0.443,0.005-0.775
						c-0.002-0.246-0.005-0.597-0.005-1.191c0-1.829-0.919-2.045-2.749-2.476c-0.17-0.04-0.353-0.083-0.549-0.13
						c-2.418-0.582-6.274-0.804-10.081-0.958C-812.221-18.437-812.503-18.443-812.795-18.443L-812.795-18.443z"/>
				</g>
				<path id="XMLID_5195_" style="fill:#FFFFFF;" d="M-823.917-12.991v-1.712c0,0-0.08-0.84,1.026-1.089
					c1.106-0.249,5.791-1.22,10.02-1.222c5.898-0.002,9.254,0.966,9.254,0.966s-7.138-0.78-13.502,0.035
					C-822.371-15.34-823.605-15.247-823.917-12.991z"/>
				<path id="XMLID_5194_" style="fill:#FFE600;" d="M-796.596-25.183c-0.531,0-0.961,0.391-0.961,0.874
					c0,0.324,0.194,0.606,0.481,0.757c-0.677,0.986-2.293,3.118-3.546,3.032c-2.425-0.167-1.679-5.09-1.343-6.811
					c0.041,0.004,0.082,0.006,0.124,0.006c0.673,0,1.219-0.496,1.219-1.109c0-0.612-0.546-1.109-1.219-1.109
					c-0.673,0-1.219,0.496-1.219,1.109c0,0.485,0.344,0.897,0.821,1.047c-0.641,1.51-2.629,5.599-5.338,5.52
					c-3.11-0.091-4.147-8.362-4.389-10.852c0.73-0.029,1.312-0.575,1.312-1.246c0-0.69-0.615-1.249-1.373-1.249
					c-0.758,0-1.373,0.559-1.373,1.249c0,0.624,0.504,1.14,1.162,1.233c-0.19,2.534-1.079,11.19-4.316,10.894
					c-3.072-0.281-4.745-4.272-5.204-5.55c0.476-0.151,0.819-0.562,0.819-1.046c0-0.612-0.546-1.109-1.219-1.109
					s-1.219,0.496-1.219,1.109c0,0.612,0.546,1.109,1.219,1.109c0.019,0,0.037-0.002,0.056-0.003
					c0.721,4.712,0.386,6.51-1.104,6.793c-1.13,0.214-2.882-1.852-3.718-2.943c0.329-0.156,0.554-0.469,0.554-0.831
					c0-0.517-0.461-0.937-1.03-0.937c-0.569,0-1.03,0.419-1.03,0.937c0,0.517,0.461,0.937,1.03,0.937
					c0.08,0,0.158-0.009,0.233-0.025c0.901,1.513,1.953,5.173,2.146,5.901c0.223,0.84,0.954,0.504,1.273,0.405
					c2.807-0.866,6.875-1.448,11.749-1.448s10.677,1.189,11.901,1.535c0.996,0.281,1.166-0.808,1.273-1.216
					c0.419-1.592,1.53-4.167,2.006-5.24c0.071,0.015,0.145,0.024,0.222,0.024c0.531,0,0.961-0.391,0.961-0.874
					S-796.065-25.183-796.596-25.183z"/>
				<g id="XMLID_5189_">
					<path id="XMLID_5193_" style="fill:#FFFFFF;" d="M-824.879-20.476c0,0,0.665,0.55,1.512,0.55c3.069,0,2.071-4.951,1.86-5.749
						c-0.212-0.798,1.028,2.778,1.028,4.222c0,0.866-0.514,2.393-2.056,2.393C-823.991-19.06-824.879-20.476-824.879-20.476z"/>
					<path id="XMLID_5192_" style="fill:#FFFFFF;" d="M-817.839-21.415c0,0,0.771,0.371,1.649,0.357
						c3.85-0.061,3.964-7.978,4.164-9.858c0.142,2.242,0.142,3.806,0.085,5.52c-0.139,4.192-1.919,4.96-3.175,4.981
						C-816.888-20.385-817.839-21.415-817.839-21.415z"/>
					<path id="XMLID_5191_" style="fill:#FFFFFF;" d="M-808.442-21.248c0,0,0.598,0.191,1.121,0.165
						c3.381-0.169,4.829-5.051,4.829-5.051s-0.832,5.719-3.798,5.719C-807.603-20.415-808.442-21.248-808.442-21.248z"/>
					<path id="XMLID_5190_" style="fill:#FFFFFF;" d="M-802.042-20.551c0,0,0.477,0.54,1.164,0.529
						c2.005-0.031,3.321-2.404,3.321-2.404s-1.459,3.081-3.345,3.081C-801.996-19.344-802.042-20.551-802.042-20.551z"/>
				</g>
			</g>
		</g>
		<g id="XMLID_4667_" style="display:inline;">
			<g id="XMLID_5121_">
				<g id="XMLID_5179_">
					<path id="XMLID_5184_" style="fill:#7B5B54;" d="M-861.265,56.814l2.038,2.716l-3.819,2.957l-6.954-13.126
						c6.651-4.692,11.16-4.924,13.527-0.696C-854.946,52.023-856.543,54.739-861.265,56.814z M-865.107,51.351l1.355,1.76
						c2.963-1.317,4.14-2.413,3.53-3.289S-862.461,49.457-865.107,51.351z"/>
					<path id="XMLID_5180_" style="fill:#7B5B54;" d="M-861.284,45.658c2.085,0,3.688,1.002,4.81,3.007
						c1.529,3.358-0.068,6.074-4.791,8.149l2.038,2.716l-3.819,2.957l-6.955-13.126C-866.503,46.893-863.597,45.659-861.284,45.658
						 M-863.753,53.111c2.963-1.317,4.14-2.413,3.53-3.289c-0.193-0.277-0.487-0.415-0.883-0.415c-0.857,0-2.191,0.648-4.001,1.944
						L-863.753,53.111 M-861.284,43.948v1.71V43.948L-861.284,43.948c-2.701,0-5.875,1.314-9.704,4.015
						c-0.703,0.496-0.928,1.438-0.525,2.198l6.955,13.126c0.236,0.446,0.657,0.765,1.151,0.871c0.12,0.026,0.24,0.038,0.36,0.038
						c0.376,0,0.745-0.124,1.047-0.358l3.819-2.957c0.739-0.572,0.882-1.631,0.321-2.379l-0.811-1.081
						c2.103-1.214,3.443-2.626,4.075-4.281c0.617-1.615,0.508-3.359-0.323-5.185c-0.02-0.043-0.041-0.085-0.064-0.127
						C-856.404,45.29-858.583,43.948-861.284,43.948L-861.284,43.948z"/>
				</g>
				<g id="XMLID_5171_">
					<path id="XMLID_5176_" style="fill:#7B5B54;" d="M-850.553,54.931l0.08,2.294l-4.197-1.433l0.287-13.567l3.143-1.295
						l9.177,11.05l-3.254,3.615l-1.843-2.676L-850.553,54.931z M-849.106,49.394l-2.196-3.504l0.228,4.567L-849.106,49.394z"/>
					<path id="XMLID_5172_" style="fill:#7B5B54;" d="M-851.24,40.93l9.177,11.05l-3.254,3.615l-1.843-2.676l-3.394,2.013
						l0.08,2.294l-4.197-1.433l0.287-13.567L-851.24,40.93 M-851.074,50.457l1.968-1.063l-2.196-3.504L-851.074,50.457
						 M-851.241,39.219c-0.219,0-0.44,0.042-0.651,0.129l-3.143,1.295c-0.628,0.259-1.044,0.866-1.058,1.545l-0.287,13.567
						c-0.016,0.745,0.452,1.414,1.157,1.655l4.197,1.433c0.18,0.062,0.367,0.092,0.552,0.092c0.362,0,0.72-0.115,1.019-0.337
						c0.452-0.335,0.71-0.871,0.69-1.433l-0.044-1.281l1.147-0.68l0.936,1.36c0.297,0.431,0.775,0.703,1.298,0.737
						c0.037,0.002,0.074,0.004,0.111,0.004c0.483,0,0.946-0.205,1.271-0.566l3.254-3.615c0.568-0.631,0.587-1.584,0.044-2.237
						l-9.177-11.05C-850.257,39.437-850.743,39.219-851.241,39.219L-851.241,39.219z"/>
				</g>
				<g id="XMLID_5163_">
					<path id="XMLID_5168_" style="fill:#7B5B54;" d="M-836.541,52.535l-4.779,1.763l-2.049-16.399
						c7.748-0.717,12.039,0.418,12.872,3.407c0.834,2.988-0.079,5.332-2.737,7.031l3.995,1.698l-2.888,4.615l-5.355-5.525
						L-836.541,52.535z M-839.174,41.908l0.681,2.908c2.956-0.548,4.366-1.184,4.229-1.908S-836.039,41.851-839.174,41.908z"/>
					<path id="XMLID_5164_" style="fill:#7B5B54;" d="M-839.259,37.69c5.169,0,8.09,1.205,8.762,3.615
						c0.834,2.988-0.079,5.332-2.737,7.031l3.995,1.698l-2.888,4.615l-5.355-5.525l0.941,3.411l-4.779,1.763l-2.049-16.399
						C-841.87,37.759-840.5,37.69-839.259,37.69 M-838.493,44.816c2.956-0.548,4.366-1.184,4.229-1.908
						c-0.127-0.671-1.544-1.007-4.248-1.007c-0.213,0-0.433,0.002-0.661,0.006L-838.493,44.816 M-839.259,35.979
						c-1.287,0-2.723,0.073-4.268,0.216c-0.461,0.043-0.885,0.271-1.175,0.631c-0.29,0.361-0.422,0.824-0.364,1.284l2.049,16.399
						c0.065,0.518,0.362,0.978,0.808,1.249c0.271,0.165,0.579,0.249,0.889,0.249c0.2,0,0.4-0.035,0.592-0.106l4.779-1.763
						c0.226-0.083,0.425-0.21,0.59-0.368l2.004,2.068c0.324,0.334,0.768,0.52,1.228,0.52c0.06,0,0.12-0.003,0.18-0.009
						c0.523-0.055,0.991-0.348,1.27-0.794l2.888-4.615c0.265-0.424,0.332-0.943,0.182-1.421c-0.15-0.477-0.502-0.865-0.962-1.061
						l-1.499-0.637c1.552-1.903,1.975-4.272,1.219-6.978C-829.75,37.617-833.253,35.979-839.259,35.979L-839.259,35.979z"/>
				</g>
				<g id="XMLID_5157_">
					<path id="XMLID_5161_" style="fill:#7B5B54;" d="M-821.605,40.654l1.178,9.349l-4.755,1.916l-0.044-11.275l-3.71-0.103
						l-0.032-4.097l10.493-1.581l0.86,5.994L-821.605,40.654z"/>
					<path id="XMLID_5158_" style="fill:#7B5B54;" d="M-818.475,34.863l0.86,5.994l-3.99-0.204l1.178,9.349l-4.755,1.916
						l-0.044-11.275l-3.71-0.103l-0.032-4.097L-818.475,34.863 M-818.475,33.153c-0.085,0-0.17,0.006-0.255,0.019l-10.493,1.581
						c-0.842,0.127-1.462,0.853-1.456,1.705l0.032,4.097c0.007,0.921,0.742,1.671,1.663,1.696l2.054,0.057l0.037,9.618
						c0.002,0.567,0.285,1.096,0.756,1.413c0.286,0.192,0.619,0.291,0.954,0.291c0.216,0,0.433-0.041,0.639-0.124l4.755-1.916
						c0.72-0.29,1.155-1.03,1.058-1.8l-0.923-7.323l1.95,0.1c0.029,0.001,0.058,0.002,0.087,0.002c0.479,0,0.938-0.201,1.263-0.558
						c0.345-0.378,0.502-0.89,0.43-1.396l-0.86-5.994c-0.065-0.451-0.307-0.858-0.672-1.129
						C-817.752,33.27-818.11,33.153-818.475,33.153L-818.475,33.153z"/>
				</g>
				<g id="XMLID_5151_">
					<path id="XMLID_5155_" style="fill:#7B5B54;" d="M-812.286,44.52l-4.034-5.411l3.734-3.445l2.283,4.512l2.27-5.415l4.707,2.198
						l-5.352,7.703l0.136,6.218l-4.362-0.902L-812.286,44.52z"/>
					<path id="XMLID_5152_" style="fill:#7B5B54;" d="M-808.034,34.761l4.707,2.198l-5.352,7.703l0.136,6.218l-4.362-0.902
						l0.619-5.459l-4.034-5.411l3.734-3.445l2.283,4.512L-808.034,34.761 M-808.034,33.051c-0.209,0-0.417,0.038-0.616,0.115
						c-0.434,0.168-0.781,0.505-0.961,0.934l-0.838,2l-0.611-1.208c-0.242-0.478-0.695-0.816-1.222-0.911
						c-0.101-0.018-0.203-0.027-0.304-0.027c-0.426,0-0.841,0.159-1.16,0.453l-3.734,3.445c-0.644,0.594-0.735,1.577-0.211,2.279
						l3.63,4.868l-0.543,4.786c-0.1,0.879,0.487,1.688,1.353,1.868l4.362,0.902c0.115,0.024,0.231,0.035,0.347,0.035
						c0.396,0,0.784-0.138,1.094-0.396c0.4-0.333,0.627-0.831,0.616-1.352l-0.124-5.662l5.035-7.246
						c0.288-0.414,0.378-0.934,0.247-1.421c-0.131-0.487-0.471-0.891-0.927-1.104l-4.707-2.198
						C-807.539,33.104-807.786,33.051-808.034,33.051L-808.034,33.051z"/>
				</g>
				<g id="XMLID_5145_">
					<path id="XMLID_5149_" style="fill:#7B5B54;" d="M-801.342,36.061l4.387,0.784l-2.713,10.745l4.6-0.348l-1.671,5.737
						l-7.022-1.404L-801.342,36.061z"/>
					<path id="XMLID_5146_" style="fill:#7B5B54;" d="M-801.342,36.061l4.387,0.784l-2.713,10.745l4.6-0.348l-1.671,5.737
						l-7.022-1.404L-801.342,36.061 M-801.342,34.351c-0.354,0-0.701,0.11-0.993,0.318c-0.375,0.267-0.626,0.674-0.697,1.129
						l-2.419,15.514c-0.141,0.905,0.456,1.761,1.355,1.941l7.022,1.404c0.113,0.023,0.226,0.033,0.337,0.033
						c0.746,0,1.425-0.49,1.641-1.232l1.671-5.737c0.157-0.539,0.04-1.12-0.314-1.556c-0.326-0.402-0.815-0.633-1.328-0.633
						c-0.043,0-0.086,0.002-0.129,0.005l-2.231,0.169l2.131-8.441c0.116-0.46,0.036-0.948-0.221-1.346
						c-0.257-0.399-0.669-0.672-1.136-0.756l-4.387-0.784C-801.141,34.36-801.241,34.351-801.342,34.351L-801.342,34.351z"/>
				</g>
				<g id="XMLID_5137_">
					<path id="XMLID_5142_" style="fill:#7B5B54;" d="M-790.972,51.043l-1.058,2.044l-2.964-3.267l6.92-11.721l3.384,0.376
						l2.591,14.064l-4.621,1.598l-0.295-3.224L-790.972,51.043z M-786.985,46.897l-0.197-4.117l-2.046,4.101L-786.985,46.897z"/>
					<path id="XMLID_5138_" style="fill:#7B5B54;" d="M-788.075,38.098l3.384,0.376l2.591,14.064l-4.621,1.598l-0.295-3.224
						l-3.956,0.13l-1.058,2.044l-2.964-3.267L-788.075,38.098 M-786.985,46.897l-0.197-4.117l-2.046,4.101L-786.985,46.897
						 M-788.075,36.388c-0.6,0-1.163,0.316-1.472,0.841l-6.92,11.721c-0.381,0.645-0.298,1.464,0.206,2.019l2.964,3.267
						c0.326,0.36,0.788,0.561,1.267,0.561c0.073,0,0.147-0.005,0.221-0.014c0.555-0.072,1.04-0.412,1.298-0.91l0.597-1.154
						l1.342-0.044l0.148,1.617c0.048,0.523,0.334,0.996,0.775,1.281c0.28,0.181,0.603,0.273,0.928,0.273
						c0.188,0,0.377-0.031,0.559-0.094l4.621-1.598c0.799-0.276,1.276-1.095,1.123-1.926l-2.591-14.064
						c-0.137-0.742-0.743-1.307-1.493-1.39l-3.384-0.376C-787.949,36.391-788.013,36.388-788.075,36.388L-788.075,36.388z"/>
				</g>
				<g id="XMLID_5131_">
					<path id="XMLID_5135_" style="fill:#7B5B54;" d="M-775.82,48.962l-1.179,6.284l-4.721-0.077l3.778-14.043l4.597,0.502
						l1.917,8.247l2.364-6.836l5.534,1.078l-7.06,14.72l-3.604-0.512L-775.82,48.962z"/>
					<path id="XMLID_5132_" style="fill:#7B5B54;" d="M-777.942,41.126l4.597,0.502l1.917,8.247l2.363-6.836l5.534,1.078
						l-7.06,14.72l-3.604-0.512l-1.626-9.362l-1.179,6.283l-4.721-0.077L-777.942,41.126 M-777.944,39.416
						c-0.765,0-1.448,0.513-1.65,1.266l-3.778,14.043c-0.137,0.509-0.031,1.053,0.286,1.474c0.317,0.421,0.811,0.672,1.338,0.681
						l4.721,0.077c0.009,0,0.019,0,0.028,0c0.285,0,0.557-0.071,0.796-0.197l0.323,1.857c0.127,0.731,0.71,1.296,1.444,1.401
						l3.604,0.512c0.081,0.011,0.162,0.017,0.241,0.017c0.65,0,1.254-0.372,1.541-0.971l7.06-14.72
						c0.229-0.478,0.224-1.034-0.014-1.507c-0.238-0.473-0.681-0.81-1.201-0.911l-5.534-1.078c-0.11-0.021-0.22-0.032-0.328-0.032
						c-0.717,0-1.374,0.452-1.615,1.152l-0.424,1.228l-0.573-2.467c-0.164-0.708-0.758-1.234-1.48-1.313l-4.597-0.502
						C-777.819,39.419-777.882,39.416-777.944,39.416L-777.944,39.416z"/>
				</g>
				<g id="XMLID_5122_">
					<path id="XMLID_5128_" style="fill:#7B5B54;" d="M-768.282,59.73l6.514-14.073c7.332,3.643,9.826,7.767,7.483,12.372
						S-761.294,63.202-768.282,59.73z M-760.245,51.001l-1.89,5.045c2.321,1.17,3.888,0.955,4.701-0.644
						C-756.621,53.804-757.558,52.337-760.245,51.001z"/>
					<path id="XMLID_5123_" style="fill:#7B5B54;" d="M-761.769,45.658c7.332,3.643,9.826,7.767,7.483,12.372
						c-1.336,2.626-3.427,3.939-6.273,3.939c-2.146,0-4.72-0.746-7.723-2.238L-761.769,45.658 M-759.597,56.787
						c0.973,0,1.694-0.462,2.163-1.385c0.814-1.599-0.124-3.066-2.811-4.401l-1.89,5.045
						C-761.155,56.54-760.309,56.787-759.597,56.787 M-761.769,43.947c-0.191,0-0.383,0.032-0.567,0.097
						c-0.436,0.153-0.791,0.476-0.985,0.895l-6.514,14.073c-0.389,0.841-0.038,1.838,0.791,2.25
						c3.274,1.626,6.049,2.417,8.484,2.417c3.479,0,6.175-1.685,7.797-4.874c1.117-2.196,1.335-4.363,0.647-6.443
						c-1.017-3.075-3.926-5.769-8.892-8.237C-761.246,44.007-761.507,43.947-761.769,43.947L-761.769,43.947z M-759.934,55.045
						l0.553-1.477c0.38,0.339,0.478,0.566,0.5,0.633c0.019,0.058,0.054,0.165-0.079,0.426c-0.214,0.42-0.384,0.45-0.639,0.45
						C-759.687,55.077-759.798,55.069-759.934,55.045L-759.934,55.045z"/>
				</g>
			</g>
			<g id="XMLID_5011_">
				<g id="XMLID_5112_">
					<path id="XMLID_5118_" style="fill:#EF5BA1;" d="M-861.265,56.814l2.038,2.716l-3.819,2.957l-6.954-13.126
						c6.651-4.692,11.16-4.924,13.527-0.696C-854.946,52.023-856.543,54.739-861.265,56.814z M-865.107,51.351l1.355,1.76
						c2.963-1.317,4.14-2.413,3.53-3.289S-862.461,49.457-865.107,51.351z"/>
					<path id="XMLID_5113_" style="fill:#FFFFFF;" d="M-861.284,45.658c2.085,0,3.688,1.002,4.81,3.007
						c1.529,3.358-0.068,6.074-4.791,8.149l2.038,2.716l-3.819,2.957l-6.955-13.126C-866.503,46.893-863.597,45.659-861.284,45.658
						 M-863.753,53.111c2.963-1.317,4.14-2.413,3.53-3.289c-0.193-0.277-0.487-0.415-0.883-0.415c-0.857,0-2.191,0.648-4.001,1.944
						L-863.753,53.111 M-861.284,44.803v0.855V44.803L-861.284,44.803c-2.518,0-5.531,1.262-9.211,3.859
						c-0.352,0.248-0.464,0.719-0.263,1.099l6.955,13.126c0.118,0.223,0.329,0.382,0.575,0.436c0.06,0.013,0.12,0.019,0.18,0.019
						c0.188,0,0.372-0.062,0.523-0.179l3.819-2.957c0.369-0.286,0.441-0.816,0.16-1.189l-1.407-1.875
						c2.423-1.218,3.918-2.632,4.557-4.305c0.532-1.393,0.43-2.916-0.302-4.526c-0.01-0.022-0.021-0.043-0.032-0.063
						C-857.008,45.962-858.877,44.803-861.284,44.803L-861.284,44.803z M-863.88,51.543c1.661-1.101,2.442-1.281,2.774-1.281
						c0.128,0,0.162,0.025,0.176,0.042c-0.052,0.124-0.402,0.716-2.561,1.745L-863.88,51.543L-863.88,51.543z"/>
				</g>
				<g id="XMLID_5104_">
					<path id="XMLID_5109_" style="fill:#EF5BA1;" d="M-850.553,54.931l0.08,2.294l-4.197-1.433l0.287-13.567l3.143-1.295
						l9.177,11.05l-3.254,3.615l-1.843-2.676L-850.553,54.931z M-849.106,49.394l-2.196-3.504l0.228,4.567L-849.106,49.394z"/>
					<path id="XMLID_5105_" style="fill:#FFFFFF;" d="M-851.24,40.93l9.177,11.05l-3.254,3.615l-1.843-2.676l-3.394,2.013
						l0.08,2.294l-4.197-1.433l0.287-13.567L-851.24,40.93 M-851.074,50.457l1.968-1.063l-2.196-3.504L-851.074,50.457
						 M-851.24,40.075c-0.109,0-0.22,0.021-0.326,0.065l-3.143,1.295c-0.314,0.129-0.522,0.433-0.529,0.773l-0.287,13.567
						c-0.008,0.372,0.226,0.707,0.579,0.827l4.197,1.433c0.09,0.031,0.183,0.046,0.276,0.046c0.181,0,0.36-0.058,0.51-0.168
						c0.226-0.168,0.355-0.435,0.345-0.716l-0.062-1.788l2.27-1.346l1.39,2.018c0.148,0.216,0.388,0.351,0.649,0.368
						c0.018,0.001,0.037,0.002,0.056,0.002c0.242,0,0.473-0.102,0.636-0.283l3.254-3.615c0.284-0.316,0.293-0.792,0.022-1.118
						l-9.177-11.05C-850.748,40.183-850.991,40.075-851.24,40.075L-851.24,40.075z"/>
				</g>
				<g id="XMLID_5095_">
					<path id="XMLID_5101_" style="fill:#EF5BA1;" d="M-836.541,52.535l-4.779,1.763l-2.049-16.399
						c7.748-0.717,12.039,0.418,12.872,3.407c0.834,2.988-0.079,5.332-2.737,7.031l3.995,1.698l-2.888,4.615l-5.355-5.525
						L-836.541,52.535z M-839.174,41.908l0.681,2.908c2.956-0.548,4.366-1.184,4.229-1.908S-836.039,41.851-839.174,41.908z"/>
					<path id="XMLID_5096_" style="fill:#FFFFFF;" d="M-839.259,37.69c5.169,0,8.09,1.205,8.762,3.615
						c0.834,2.988-0.079,5.332-2.737,7.031l3.995,1.698l-2.888,4.615l-5.355-5.525l0.941,3.411l-4.779,1.763l-2.049-16.399
						C-841.87,37.759-840.5,37.69-839.259,37.69 M-838.493,44.816c2.956-0.548,4.366-1.184,4.229-1.908
						c-0.127-0.671-1.544-1.007-4.248-1.007c-0.213,0-0.433,0.002-0.661,0.006L-838.493,44.816 M-839.259,36.835
						c-1.261,0-2.67,0.071-4.189,0.212c-0.231,0.021-0.443,0.135-0.588,0.316c-0.145,0.18-0.211,0.412-0.182,0.642l2.049,16.399
						c0.032,0.259,0.181,0.489,0.404,0.625c0.136,0.083,0.29,0.125,0.445,0.125c0.1,0,0.2-0.017,0.296-0.053l4.779-1.763
						c0.417-0.154,0.647-0.601,0.529-1.03l-0.051-0.186l3.027,3.123c0.162,0.167,0.384,0.26,0.614,0.26
						c0.03,0,0.06-0.002,0.09-0.005c0.261-0.028,0.496-0.174,0.635-0.397l2.888-4.615c0.133-0.212,0.166-0.472,0.091-0.71
						c-0.075-0.239-0.251-0.432-0.481-0.53l-2.64-1.122c2.011-1.82,2.658-4.231,1.871-7.05
						C-830.458,38.261-833.683,36.835-839.259,36.835L-839.259,36.835z M-837.849,43.816l-0.247-1.057
						c1.569,0.023,2.35,0.174,2.728,0.294C-835.708,43.234-836.411,43.51-837.849,43.816L-837.849,43.816z"/>
				</g>
				<g id="XMLID_5069_">
					<path id="XMLID_5093_" style="fill:#EF5BA1;" d="M-821.605,40.654l1.178,9.349l-4.755,1.916l-0.044-11.275l-3.71-0.103
						l-0.032-4.097l10.493-1.581l0.86,5.994L-821.605,40.654z"/>
					<path id="XMLID_5070_" style="fill:#FFFFFF;" d="M-818.475,34.863l0.86,5.994l-3.99-0.204l1.178,9.349l-4.755,1.916
						l-0.044-11.275l-3.71-0.103l-0.032-4.097L-818.475,34.863 M-818.475,34.008c-0.042,0-0.085,0.003-0.127,0.01l-10.493,1.581
						c-0.421,0.063-0.731,0.427-0.728,0.852l0.032,4.097c0.004,0.46,0.371,0.835,0.831,0.848l2.882,0.08l0.041,10.446
						c0.001,0.284,0.143,0.548,0.378,0.706c0.143,0.096,0.31,0.146,0.477,0.146c0.108,0,0.216-0.02,0.32-0.062l4.755-1.916
						c0.36-0.145,0.577-0.515,0.529-0.9l-1.05-8.336l2.97,0.152c0.015,0.001,0.029,0.001,0.044,0.001
						c0.24,0,0.469-0.101,0.632-0.279c0.172-0.189,0.251-0.445,0.215-0.698l-0.86-5.994c-0.032-0.226-0.153-0.429-0.336-0.565
						C-818.114,34.066-818.293,34.008-818.475,34.008L-818.475,34.008z"/>
				</g>
				<g id="XMLID_5063_">
					<path id="XMLID_5067_" style="fill:#EF5BA1;" d="M-812.286,44.52l-4.034-5.411l3.734-3.445l2.283,4.512l2.27-5.415l4.707,2.198
						l-5.352,7.703l0.136,6.218l-4.362-0.902L-812.286,44.52z"/>
					<path id="XMLID_5064_" style="fill:#FFFFFF;" d="M-808.034,34.761l4.707,2.198l-5.352,7.703l0.136,6.218l-4.362-0.902
						l0.619-5.459l-4.034-5.411l3.734-3.445l2.283,4.512L-808.034,34.761 M-808.034,33.906c-0.104,0-0.209,0.019-0.308,0.057
						c-0.217,0.084-0.391,0.253-0.481,0.467l-1.554,3.707l-1.447-2.86c-0.121-0.239-0.347-0.408-0.611-0.456
						c-0.051-0.009-0.102-0.014-0.152-0.014c-0.213,0-0.421,0.08-0.58,0.227l-3.734,3.445c-0.322,0.297-0.367,0.789-0.106,1.14
						l3.832,5.139l-0.581,5.122c-0.05,0.439,0.243,0.844,0.676,0.934l4.362,0.902c0.057,0.012,0.116,0.018,0.173,0.018
						c0.198,0,0.392-0.069,0.547-0.198c0.2-0.167,0.313-0.415,0.308-0.676l-0.13-5.94l5.193-7.475
						c0.144-0.207,0.189-0.467,0.123-0.711c-0.066-0.243-0.235-0.446-0.464-0.552l-4.707-2.198
						C-807.786,33.933-807.91,33.906-808.034,33.906L-808.034,33.906z"/>
				</g>
				<g id="XMLID_5057_">
					<path id="XMLID_5061_" style="fill:#00B9F2;" d="M-801.342,36.061l4.387,0.784l-2.713,10.745l4.6-0.348l-1.671,5.737
						l-7.022-1.404L-801.342,36.061z"/>
					<path id="XMLID_5058_" style="fill:#FFFFFF;" d="M-801.342,36.061l4.387,0.784l-2.713,10.745l4.6-0.348l-1.671,5.737
						l-7.022-1.404L-801.342,36.061 M-801.342,35.206c-0.177,0-0.351,0.055-0.497,0.159c-0.187,0.134-0.313,0.337-0.348,0.564
						l-2.419,15.514c-0.071,0.453,0.228,0.881,0.677,0.97l7.022,1.404c0.056,0.011,0.113,0.017,0.168,0.017
						c0.373,0,0.712-0.245,0.82-0.616l1.671-5.737c0.078-0.269,0.02-0.56-0.157-0.778c-0.163-0.201-0.407-0.317-0.664-0.317
						c-0.021,0-0.043,0.001-0.065,0.002l-3.416,0.258l2.422-9.593c0.058-0.23,0.018-0.474-0.111-0.673s-0.334-0.336-0.568-0.378
						l-4.387-0.784C-801.241,35.21-801.292,35.206-801.342,35.206L-801.342,35.206z"/>
				</g>
				<g id="XMLID_5041_">
					<path id="XMLID_5054_" style="fill:#00B9F2;" d="M-790.972,51.043l-1.058,2.044l-2.964-3.267l6.92-11.721l3.384,0.376
						l2.591,14.064l-4.621,1.598l-0.295-3.224L-790.972,51.043z M-786.985,46.897l-0.197-4.117l-2.046,4.101L-786.985,46.897z"/>
					<path id="XMLID_5042_" style="fill:#FFFFFF;" d="M-788.075,38.098l3.384,0.376l2.591,14.064l-4.621,1.598l-0.295-3.224
						l-3.956,0.13l-1.058,2.044l-2.964-3.267L-788.075,38.098 M-786.985,46.897l-0.197-4.117l-2.046,4.101L-786.985,46.897
						 M-788.075,37.243c-0.3,0-0.581,0.158-0.736,0.42l-6.92,11.721c-0.191,0.323-0.149,0.732,0.103,1.009l2.964,3.267
						c0.163,0.18,0.394,0.281,0.633,0.281c0.037,0,0.074-0.002,0.111-0.007c0.278-0.036,0.52-0.206,0.649-0.455l0.828-1.599
						l2.649-0.087l0.221,2.42c0.024,0.262,0.167,0.498,0.388,0.641c0.14,0.09,0.301,0.137,0.464,0.137
						c0.094,0,0.188-0.015,0.279-0.047l4.621-1.598c0.4-0.138,0.638-0.547,0.562-0.963l-2.591-14.064
						c-0.068-0.371-0.372-0.653-0.746-0.695l-3.384-0.376C-788.012,37.245-788.044,37.243-788.075,37.243L-788.075,37.243z"/>
				</g>
				<g id="XMLID_5034_">
					<path id="XMLID_5039_" style="fill:#00B9F2;" d="M-775.82,48.962l-1.179,6.284l-4.721-0.077l3.778-14.043l4.597,0.502
						l1.917,8.247l2.364-6.836l5.534,1.078l-7.06,14.72l-3.604-0.512L-775.82,48.962z"/>
					<path id="XMLID_5035_" style="fill:#FFFFFF;" d="M-777.942,41.126l4.597,0.502l1.917,8.247l2.363-6.836l5.534,1.078
						l-7.06,14.72l-3.604-0.512l-1.626-9.362l-1.179,6.283l-4.721-0.077L-777.942,41.126 M-777.943,40.271
						c-0.383,0-0.724,0.256-0.825,0.633l-3.778,14.043c-0.068,0.255-0.016,0.526,0.143,0.737c0.159,0.21,0.405,0.336,0.669,0.34
						l4.721,0.077c0.005,0,0.009,0,0.009,0c0.415,0,0.769-0.292,0.845-0.697l0.306-1.63l0.816,4.697
						c0.063,0.365,0.355,0.648,0.722,0.7l3.604,0.512c0.04,0.006,0.081,0.009,0.121,0.009c0.325,0,0.627-0.186,0.771-0.485
						l7.06-14.72c0.114-0.239,0.112-0.517-0.007-0.754c-0.119-0.237-0.341-0.405-0.601-0.455l-5.534-1.078
						c-0.055-0.011-0.11-0.016-0.164-0.016c-0.358,0-0.687,0.226-0.808,0.576l-1.394,4.032l-1.245-5.357
						c-0.082-0.354-0.379-0.617-0.74-0.657l-4.597-0.502C-777.881,40.272-777.912,40.271-777.943,40.271L-777.943,40.271z"/>
				</g>
				<g id="XMLID_5012_">
					<path id="XMLID_5031_" style="fill:#00B9F2;" d="M-768.282,59.73l6.514-14.073c7.332,3.643,9.826,7.767,7.483,12.372
						S-761.294,63.202-768.282,59.73z M-760.245,51.001l-1.89,5.045c2.321,1.17,3.888,0.955,4.701-0.644
						C-756.621,53.804-757.558,52.337-760.245,51.001z"/>
					<path id="XMLID_5016_" style="fill:#FFFFFF;" d="M-761.769,45.658c7.332,3.643,9.826,7.767,7.483,12.372
						c-1.336,2.626-3.427,3.939-6.273,3.939c-2.146,0-4.72-0.746-7.723-2.238L-761.769,45.658 M-759.597,56.787
						c0.973,0,1.694-0.462,2.163-1.385c0.814-1.599-0.124-3.066-2.811-4.401l-1.89,5.045
						C-761.155,56.54-760.309,56.787-759.597,56.787 M-761.769,44.803c-0.096,0-0.192,0.016-0.284,0.048
						c-0.218,0.077-0.395,0.238-0.492,0.448l-6.514,14.073c-0.195,0.42-0.019,0.919,0.396,1.125
						c3.109,1.544,5.835,2.328,8.104,2.328c3.181,0,5.547-1.482,7.035-4.406c1.01-1.985,1.211-3.931,0.597-5.786
						c-0.942-2.847-3.71-5.379-8.461-7.739C-761.507,44.833-761.638,44.803-761.769,44.803L-761.769,44.803z M-761.054,55.598
						l1.265-3.375c1.172,0.707,1.588,1.305,1.722,1.709c0.114,0.343,0.073,0.687-0.128,1.083c-0.323,0.635-0.755,0.918-1.401,0.918
						C-760.008,55.932-760.496,55.82-761.054,55.598L-761.054,55.598z"/>
				</g>
			</g>
			<g id="XMLID_4668_">
				<g id="XMLID_5001_">
					<path id="XMLID_129_" style="fill:#EF5BA1;" d="M-861.265,56.814l2.038,2.716l-3.819,2.957l-6.954-13.126
						c6.651-4.692,11.16-4.924,13.527-0.696C-854.946,52.023-856.543,54.739-861.265,56.814z M-865.107,51.351l1.355,1.76
						c2.963-1.317,4.14-2.413,3.53-3.289S-862.461,49.457-865.107,51.351z"/>
				</g>
				<g id="XMLID_4994_">
					<path id="XMLID_88_" style="fill:#EF5BA1;" d="M-850.553,54.931l0.08,2.294l-4.197-1.433l0.287-13.567l3.143-1.295l9.177,11.05
						l-3.254,3.615l-1.843-2.676L-850.553,54.931z M-849.106,49.394l-2.196-3.504l0.228,4.567L-849.106,49.394z"/>
				</g>
				<g id="XMLID_4987_">
					<path id="XMLID_94_" style="fill:#EF5BA1;" d="M-836.541,52.535l-4.779,1.763l-2.049-16.399
						c7.748-0.717,12.039,0.418,12.872,3.407c0.834,2.988-0.079,5.332-2.737,7.031l3.995,1.698l-2.888,4.615l-5.355-5.525
						L-836.541,52.535z M-839.174,41.908l0.681,2.908c2.956-0.548,4.366-1.184,4.229-1.908S-836.039,41.851-839.174,41.908z"/>
				</g>
				<g id="XMLID_4932_">
					<path id="XMLID_64_" style="fill:#EF5BA1;" d="M-821.605,40.654l1.178,9.349l-4.755,1.916l-0.044-11.275l-3.71-0.103
						l-0.032-4.097l10.493-1.581l0.86,5.994L-821.605,40.654z"/>
				</g>
				<g id="XMLID_4925_">
					<path id="XMLID_61_" style="fill:#EF5BA1;" d="M-812.286,44.52l-4.034-5.411l3.734-3.445l2.283,4.512l2.27-5.415l4.707,2.198
						l-5.352,7.703l0.136,6.218l-4.362-0.902L-812.286,44.52z"/>
				</g>
				<g id="XMLID_4920_">
					<path id="XMLID_58_" style="fill:#00B9F2;" d="M-801.342,36.061l4.387,0.784l-2.713,10.745l4.6-0.348l-1.671,5.737
						l-7.022-1.404L-801.342,36.061z"/>
				</g>
				<g id="XMLID_4913_">
					<path id="XMLID_75_" style="fill:#00B9F2;" d="M-790.972,51.043l-1.058,2.044l-2.964-3.267l6.92-11.721l3.384,0.376
						l2.591,14.064l-4.621,1.598l-0.295-3.224L-790.972,51.043z M-786.985,46.897l-0.197-4.117l-2.046,4.101L-786.985,46.897z"/>
				</g>
				<g id="XMLID_4899_">
					<path id="XMLID_52_" style="fill:#00B9F2;" d="M-775.82,48.962l-1.179,6.284l-4.721-0.077l3.778-14.043l4.597,0.502
						l1.917,8.247l2.364-6.836l5.534,1.078l-7.06,14.72l-3.604-0.512L-775.82,48.962z"/>
				</g>
				<g id="XMLID_4669_">
					<path id="XMLID_65_" style="fill:#00B9F2;" d="M-768.282,59.73l6.514-14.073c7.332,3.643,9.826,7.767,7.483,12.372
						S-761.294,63.202-768.282,59.73z M-760.245,51.001l-1.89,5.045c2.321,1.17,3.888,0.955,4.701-0.644
						C-756.621,53.804-757.558,52.337-760.245,51.001z"/>
				</g>
			</g>
		</g>
		<path id="XMLID_4666_" style="display:inline;fill:#EF5BA1;" d="M-840.598-11.358l0.065-0.393l0.326-1.962
			c-35.56,17.408-30.245,48.608-28.295,56.324c0.221-0.114,0.441-0.226,0.659-0.33C-869.585,34.779-873.784,5.87-840.598-11.358z"/>
		<path id="XMLID_4660_" style="display:inline;fill:#00B9F2;" d="M-843.463-5.856c0.056-0.375,0.147-0.766,0.278-1.163
			c0.17-0.515,0.387-0.982,0.631-1.387c-28.264,15.01-25.445,43.243-24.259,50.224c0.301-0.128,0.6-0.246,0.896-0.355
			C-866.943,35.29-869.26,10.258-843.463-5.856z"/>
		<path id="XMLID_4480_" style="display:inline;fill:#EF5BA1;" d="M-783.466-11.358l-0.065-0.393l-0.326-1.962
			c35.56,17.408,30.245,48.608,28.295,56.324c-0.221-0.114-0.441-0.226-0.659-0.33C-754.478,34.779-750.28,5.87-783.466-11.358z"/>
		<path id="XMLID_4479_" style="display:inline;fill:#00B9F2;" d="M-780.6-5.856c-0.056-0.375-0.147-0.766-0.278-1.163
			c-0.17-0.515-0.387-0.982-0.631-1.387c28.264,15.01,25.445,43.243,24.259,50.224c-0.302-0.128-0.6-0.246-0.896-0.355
			C-757.121,35.29-754.803,10.258-780.6-5.856z"/>
		<g id="XMLID_4040_" style="display:inline;">
			<path id="XMLID_4478_" style="fill:#EF5BA1;" d="M-857.7,32.316l5.669,5.01c0.252-0.171,0.508-0.34,0.766-0.508l-5.493-5.518
				l-0.777,0.243L-857.7,32.316z"/>
			<path id="XMLID_4477_" style="fill:#EF5BA1;" d="M-855.165,19.959l9.311,13.707c0.376-0.195,0.755-0.387,1.138-0.576
				l-8.488-14.397l-1.37,0.072L-855.165,19.959z"/>
			<path id="XMLID_4476_" style="fill:#00B9F2;" d="M-856.813,25.087l-0.4,1.011l7.749,9.589c0.318-0.192,0.639-0.382,0.963-0.57
				l-7.203-10.181L-856.813,25.087z"/>
			<path id="XMLID_4475_" style="fill:#EF5BA1;" d="M-858.844,17.664l1.273,0.205c0.148,0.024,0.276,0.119,0.34,0.255l0.553,1.165
				c0.162,0.342,0.646,0.349,0.819,0.012l0.588-1.148c0.069-0.134,0.199-0.225,0.348-0.245l1.279-0.166
				c0.375-0.049,0.532-0.507,0.265-0.775l-0.91-0.914c-0.106-0.107-0.153-0.258-0.125-0.406l0.237-1.267
				c0.07-0.372-0.318-0.662-0.655-0.491l-1.15,0.583c-0.134,0.068-0.293,0.065-0.425-0.006l-1.132-0.617
				c-0.332-0.181-0.728,0.097-0.67,0.471l0.199,1.274c0.023,0.149-0.028,0.299-0.137,0.402l-0.937,0.886
				C-859.36,17.142-859.218,17.604-858.844,17.664z"/>
			<path id="XMLID_4043_" style="fill:#EF5BA1;" d="M-861.094,31.491l1.015-0.093c0.118-0.011,0.234,0.037,0.31,0.129l0.652,0.784
				c0.191,0.23,0.564,0.141,0.63-0.151l0.226-0.994c0.026-0.116,0.108-0.211,0.219-0.255l0.947-0.378
				c0.278-0.111,0.308-0.492,0.051-0.646l-0.876-0.522c-0.102-0.061-0.168-0.168-0.175-0.287l-0.067-1.017
				c-0.02-0.299-0.373-0.445-0.598-0.248l-0.767,0.672c-0.089,0.078-0.212,0.108-0.327,0.078l-0.988-0.251
				c-0.29-0.074-0.539,0.217-0.421,0.492l0.402,0.937c0.047,0.109,0.037,0.235-0.026,0.335l-0.544,0.862
				C-861.592,31.191-861.392,31.518-861.094,31.491z"/>
			<path id="XMLID_4042_" style="fill:#00B9F2;" d="M-860.449,24.459l1.081,0.083c0.126,0.01,0.239,0.081,0.303,0.19l0.545,0.937
				c0.16,0.275,0.566,0.248,0.687-0.047l0.413-1.002c0.048-0.117,0.151-0.202,0.274-0.229l1.06-0.228
				c0.311-0.067,0.41-0.462,0.168-0.668l-0.826-0.702c-0.096-0.082-0.146-0.206-0.133-0.332l0.11-1.078
				c0.032-0.317-0.312-0.533-0.583-0.366l-0.923,0.568c-0.108,0.066-0.241,0.075-0.357,0.024l-0.991-0.438
				c-0.291-0.129-0.603,0.132-0.528,0.442l0.255,1.053c0.03,0.123-0.003,0.252-0.087,0.346l-0.723,0.807
				C-860.918,24.057-860.766,24.435-860.449,24.459z"/>
		</g>
		<g id="XMLID_2444_" style="display:inline;">
			<path id="XMLID_4039_" style="fill:#EF5BA1;" d="M-767.284,25.171l-1.118-0.152l-7.099,10.035
				c0.333,0.19,0.664,0.382,0.991,0.576l7.629-9.44L-767.284,25.171z"/>
			<path id="XMLID_4038_" style="fill:#00B9F2;" d="M-766.557,31.673l-0.783-0.245l-5.32,5.345c0.266,0.172,0.529,0.346,0.79,0.521
				l5.479-4.842L-766.557,31.673z"/>
			<path id="XMLID_4037_" style="fill:#00B9F2;" d="M-778.182,33.604l9.238-13.599l-0.596-1.203l-1.38-0.072l-8.427,14.294
				C-778.956,33.215-778.567,33.408-778.182,33.604z"/>
			<path id="XMLID_3876_" style="fill:#00B9F2;" d="M-764.55,28.593l-0.773-0.677c-0.227-0.199-0.583-0.051-0.603,0.25l-0.067,1.025
				c-0.008,0.119-0.074,0.227-0.177,0.289l-0.882,0.526c-0.259,0.154-0.229,0.539,0.051,0.65l0.954,0.38
				c0.111,0.044,0.193,0.141,0.22,0.257l0.227,1.002c0.067,0.294,0.442,0.384,0.634,0.152l0.657-0.79
				c0.076-0.092,0.193-0.141,0.313-0.13l1.023,0.093c0.3,0.027,0.501-0.301,0.341-0.556l-0.548-0.869
				c-0.064-0.101-0.074-0.227-0.027-0.337l0.405-0.944c0.119-0.277-0.132-0.57-0.424-0.496l-0.995,0.253
				C-764.337,28.701-764.46,28.672-764.55,28.593z"/>
			<path id="XMLID_3124_" style="fill:#00B9F2;" d="M-770.477,17.773l1.288,0.167c0.15,0.02,0.281,0.112,0.35,0.246l0.592,1.156
				c0.174,0.339,0.661,0.332,0.825-0.013l0.557-1.173c0.065-0.137,0.193-0.233,0.342-0.257l1.282-0.206
				c0.377-0.061,0.52-0.526,0.243-0.788l-0.944-0.892c-0.11-0.104-0.162-0.256-0.138-0.405l0.2-1.283
				c0.059-0.377-0.34-0.657-0.675-0.475l-1.14,0.622c-0.133,0.072-0.293,0.075-0.428,0.007l-1.159-0.587
				c-0.34-0.172-0.73,0.12-0.66,0.495l0.239,1.277c0.028,0.149-0.019,0.302-0.126,0.409l-0.916,0.921
				C-771.013,17.263-770.855,17.724-770.477,17.773z"/>
			<path id="XMLID_2447_" style="fill:#EF5BA1;" d="M-765.812,21.643l-0.93-0.572c-0.273-0.168-0.62,0.05-0.587,0.369l0.111,1.086
				c0.013,0.127-0.037,0.252-0.134,0.334l-0.832,0.707c-0.244,0.208-0.144,0.605,0.169,0.673l1.067,0.23
				c0.124,0.027,0.228,0.113,0.276,0.231l0.416,1.01c0.122,0.296,0.531,0.324,0.692,0.047l0.549-0.944
				c0.064-0.11,0.178-0.182,0.305-0.191l1.089-0.083c0.32-0.024,0.472-0.405,0.258-0.644l-0.728-0.813
				c-0.085-0.095-0.118-0.225-0.088-0.349l0.257-1.061c0.076-0.312-0.239-0.574-0.532-0.445l-0.999,0.441
				C-765.57,21.719-765.704,21.71-765.812,21.643z"/>
		</g>
		<g id="XMLID_1433_" style="display:inline;">
			<g id="XMLID_1434_">
				<g id="XMLID_1435_">
					<g id="XMLID_156_">
						<g id="XMLID_161_">
							<path id="XMLID_162_" style="fill:#7B5B54;" d="M-752.71,46.314v-2.13h1.103c0.253,0,0.439,0.076,0.558,0.227
								c0.085,0.109,0.127,0.233,0.127,0.371c0,0.121-0.03,0.227-0.09,0.319c-0.06,0.092-0.143,0.156-0.25,0.191
								c0.103,0.044,0.171,0.094,0.206,0.149c0.048,0.077,0.073,0.208,0.073,0.391c0,0.147,0.003,0.249,0.008,0.306
								c0.005,0.057,0.035,0.096,0.09,0.115v0.059h-0.503c-0.016-0.055-0.028-0.113-0.036-0.175
								c-0.008-0.061-0.013-0.148-0.013-0.259c0-0.16-0.017-0.264-0.052-0.311c-0.044-0.062-0.147-0.093-0.307-0.093h-0.466v0.837
								H-752.71z M-752.262,45.122h0.535c0.12,0,0.209-0.023,0.266-0.069c0.057-0.046,0.085-0.12,0.085-0.222
								c0-0.073-0.02-0.134-0.061-0.181c-0.054-0.066-0.141-0.099-0.261-0.099h-0.564V45.122z"/>
						</g>
						<path id="XMLID_158_" style="fill:#7B5B54;" d="M-751.78,43.131c-1.173,0-2.125,0.951-2.125,2.125
							c0,1.173,0.951,2.125,2.125,2.125s2.125-0.951,2.125-2.125C-749.656,44.083-750.607,43.131-751.78,43.131z M-751.78,47.047
							c-0.989,0-1.791-0.802-1.791-1.791c0-0.989,0.802-1.791,1.791-1.791s1.791,0.802,1.791,1.791
							C-749.989,46.245-750.791,47.047-751.78,47.047z"/>
					</g>
				</g>
			</g>
		</g>
	</g>
	<g id="XMLID_40_" style="display:none;">
		
			<image style="display:inline;overflow:visible;opacity:0.3;" width="2111" height="192" id="XMLID_260_" xlink:href="D9A69A60.png"  transform="matrix(0.24 0 0 0.24 -662.0344 -5)">
		</image>
		<g id="XMLID_157_" style="display:inline;">
			<g id="XMLID_244_">
				<path id="XMLID_251_" style="fill:#FFFFFF;" d="M-511.034,37h-148c-0.552,0-1-0.448-1-1V-2c0-0.552,0.448-1,1-1h148
					c0.552,0,1,0.448,1,1v38C-510.034,36.552-510.482,37-511.034,37z"/>
				<rect id="XMLID_250_" x="-510.034" y="-3" style="fill:#FFFFFF;" width="273.5" height="40"/>
				<rect id="XMLID_249_" x="-236.534" y="-3" style="fill:#FFF200;" width="77" height="40"/>
				
					<line id="XMLID_248_" style="fill:none;stroke:#939598;stroke-width:0.4252;stroke-miterlimit:10;" x1="-510.034" y1="-3" x2="-510.034" y2="37"/>
				<path id="XMLID_245_" d="M-190.947,24.087c-0.551,0.55-1.442,0.55-1.992,0l-2.486-2.486c-1.023,0.654-2.231,1.046-3.536,1.046
					c-3.631,0-6.574-2.943-6.574-6.574s2.943-6.574,6.574-6.574c3.631,0,6.574,2.943,6.574,6.574c0,1.304-0.392,2.513-1.046,3.536
					l2.486,2.486C-190.397,22.645-190.397,23.537-190.947,24.087z M-198.961,11.378c-2.593,0-4.695,2.103-4.695,4.695
					c0,2.594,2.103,4.695,4.695,4.695c2.594,0,4.695-2.102,4.695-4.695C-194.265,13.481-196.367,11.378-198.961,11.378z"/>
			</g>
		</g>
	</g>
	
		<text id="XMLID_68_" transform="matrix(1 0 0 1 -640.0345 21.4709)" style="display:none; font-family:'Roboto-Regular'; font-size:14px;">T&#x1EA5;t c&#x1EA3; danh m&#x1EE5;c</text>
	<g id="XMLID_69_" style="display:none;">
		
			<text id="XMLID_135_" transform="matrix(1 0 0 1 -490.0345 21.4709)" style="display:inline;fill:#BCBEC0; font-family:'Roboto-Regular'; font-size:14px;">B&#x1EA1;n c&#x1EA7;n t&#xEC;m g&#xEC; h&#xF4;m nay ?</text>
	</g>
	<rect id="XMLID_9_" x="-1075.925" y="75.455" style="display:none;fill:#F9FAFC;" width="113.966" height="45.875"/>
	<rect id="XMLID_4_" x="-660.034" y="75.455" style="display:none;fill:#F9FAFC;" width="1020.109" height="45.875"/>
	
		<text id="XMLID_55_" transform="matrix(1 0 0 1 -618.8374 101.9917)" style="display:none; font-family:'Roboto-Regular'; font-size:16.5077px;">C&#xE1;c l&#x1EC5; k&#x1EF7; ni&#x1EC7;m</text>
	
		<text id="XMLID_5_" transform="matrix(1 0 0 1 -487.3399 101.9918)" style="display:none; font-family:'Roboto-Regular'; font-size:16.5077px;">C&#xE1;c d&#x1ECB;p l&#x1EC5; h&#x1ED9;i</text>
	
		<text id="XMLID_6_" transform="matrix(1 0 0 1 -364.351 101.9918)" style="display:none; font-family:'Roboto-Regular'; font-size:16.5077px;">Ti&#x1EC7;c theo ch&#x1EE7; &#x111;&#x1EC1;</text>
	
		<text id="XMLID_7_" transform="matrix(1 0 0 1 -216.9964 101.9918)" style="display:none; font-family:'Roboto-Regular'; font-size:16.5077px;">Tin t&#x1EE9;c - S&#x1EF1; ki&#x1EC7;n</text>
	<g id="XMLID_56_">
		<g id="XMLID_67_" style="display:none;">
			<circle id="XMLID_39_" style="fill:#0096C6;" cx="-115.534" cy="17" r="17"/>
			
				<text id="XMLID_41_" transform="matrix(1 0 0 1 -90.7129 15.7131)" style="fill:#FFFFFF; font-family:'UTMHelveBold'; font-size:16px;">Gi&#x1ECF; h&#xE0;ng</text>
			
				<text id="XMLID_16_" transform="matrix(1 0 0 1 -90.7126 29.8743)" style="fill:#FFFFFF; font-family:'UTMHelveBold'; font-size:12px;">0 VN&#x110;</text>
			<g id="XMLID_8_" style="display:inline;">
				<g id="XMLID_98_">
					<circle id="XMLID_12_" style="fill:#FFFFFF;" cx="-117.935" cy="24.552" r="1.579"/>
					<circle id="XMLID_11_" style="fill:#FFFFFF;" cx="-111.043" cy="24.552" r="1.579"/>
					<path id="XMLID_13_" style="fill:#FFFFFF;" d="M-107.021,14.316c-2.017,0-9.748,0-9.748,0s-0.576,0.131-0.576,0.764
						c0,0.634,0.576,0.819,0.576,0.819h8.74l-0.491,1.662c-2.392,0-8.59,0-8.59,0s-0.537,0.122-0.537,0.71
						c0,0.592,0.537,0.764,0.537,0.764h8.137h0.018l-0.461,1.554h-8.869l-0.589-4.691l-0.191-1.582c0,0-0.171-1.461-0.268-2.064
						c-0.096-0.607-1.612-1.365-4.87-2.901c-0.766-0.322-1.407,1.08,0,1.813l2.569,1.2c0,0,0.598,0.347,0.649,0.812
						c0.051,0.468,1.094,8.195,1.094,8.195s0.042,1.076,1.019,1.076c0.976,0,8.984,0,9.802,0c0.821,0,0.98-0.857,0.98-0.857
						l1.943-5.769C-106.147,15.822-105.571,14.316-107.021,14.316z"/>
				</g>
			</g>
		</g>
		<g id="XMLID_71_">
			<circle id="XMLID_48_" style="fill:#0096C6;" cx="17" cy="17" r="17"/>
			
				<text id="XMLID_47_" transform="matrix(1 0 0 1 41.8215 15.2545)" style="display:none;fill:#FFFFFF; font-family:'UTMHelveBold'; font-size:16px;">0917.282.456</text>
			
				<text id="XMLID_49_" transform="matrix(1 0 0 1 41.8216 29.8743)" style="display:none;fill:#FFFFFF; font-family:'UTMHelveBold'; font-size:12px;">Hotline mua h&#xE0;ng</text>
			<g id="XMLID_10_">
				<path id="XMLID_14_" style="fill:#FFFFFF;" d="M24.493,19.649c0.032,0.243-0.043,0.455-0.222,0.635l-2.112,2.096
					c-0.096,0.106-0.22,0.196-0.373,0.27c-0.153,0.074-0.304,0.122-0.453,0.143c-0.011,0-0.042,0.003-0.095,0.008
					c-0.053,0.005-0.122,0.008-0.206,0.008c-0.201,0-0.527-0.034-0.976-0.103c-0.45-0.069-1-0.239-1.651-0.509
					c-0.651-0.27-1.39-0.675-2.215-1.214c-0.826-0.54-1.705-1.281-2.636-2.223c-0.741-0.73-1.355-1.429-1.842-2.096
					c-0.487-0.667-0.879-1.284-1.175-1.85c-0.296-0.566-0.519-1.08-0.667-1.54c-0.148-0.46-0.249-0.857-0.302-1.191
					c-0.053-0.333-0.074-0.595-0.064-0.786C9.513,11.106,9.519,11,9.519,10.979c0.021-0.148,0.069-0.299,0.143-0.452
					c0.074-0.154,0.164-0.278,0.27-0.373l2.112-2.112c0.148-0.148,0.317-0.222,0.508-0.222c0.138,0,0.259,0.039,0.365,0.119
					c0.106,0.079,0.196,0.177,0.27,0.293l1.699,3.223c0.095,0.169,0.122,0.355,0.079,0.556c-0.042,0.201-0.132,0.37-0.27,0.508
					l-0.778,0.778c-0.021,0.021-0.04,0.056-0.056,0.104c-0.016,0.048-0.024,0.087-0.024,0.119c0.042,0.222,0.138,0.476,0.286,0.762
					c0.127,0.253,0.323,0.563,0.588,0.929s0.64,0.786,1.127,1.262c0.476,0.488,0.9,0.866,1.27,1.136
					c0.37,0.27,0.68,0.469,0.929,0.596c0.249,0.127,0.439,0.203,0.572,0.23l0.198,0.04c0.021,0,0.056-0.008,0.104-0.024
					c0.047-0.016,0.082-0.034,0.103-0.055l0.905-0.922c0.191-0.169,0.413-0.253,0.667-0.253c0.18,0,0.323,0.032,0.429,0.095h0.016
					l3.065,1.81C24.318,19.263,24.45,19.437,24.493,19.649z"/>
			</g>
		</g>
	</g>
	
		<polyline id="XMLID_15_" style="display:none;fill:none;stroke:#000000;stroke-width:0.5669;stroke-linecap:round;stroke-miterlimit:10;" points="
		-526.884,14.608 -523.512,19.392 -520.702,14.608 	"/>
	<g id="XMLID_172_" style="display:none;">
		<g id="China_3_" style="display:inline;">
			<g id="China">
				<g id="XMLID_460_">
					<g id="XMLID_473_">
						<defs>
							<circle id="XMLID_214_" cx="222.647" cy="16.754" r="13.068"/>
						</defs>
						<clipPath id="XMLID_57_">
							<use xlink:href="#XMLID_214_"  style="overflow:visible;"/>
						</clipPath>
						<g id="XMLID_484_" style="clip-path:url(#XMLID_57_);">
							<g id="XMLID_485_">
								<defs>
									<rect id="XMLID_222_" x="209.393" y="5.841" width="43.133" height="25.16"/>
								</defs>
								<clipPath id="XMLID_80_">
									<use xlink:href="#XMLID_222_"  style="overflow:visible;"/>
								</clipPath>
								
									<rect id="XMLID_228_" x="209.393" y="5.841" style="clip-path:url(#XMLID_80_);fill:#CB2128;" width="43.133" height="25.16"/>
								<polygon id="XMLID_227_" style="clip-path:url(#XMLID_80_);fill:#F6DD25;" points="213.543,14.948 214.354,12.436 
									212.223,10.88 214.862,10.875 215.684,8.368 216.504,10.876 219.143,10.883 217.011,12.438 217.819,14.949 215.682,13.402 
																	"/>
								<polygon id="XMLID_226_" style="clip-path:url(#XMLID_80_);fill:#F6DD25;" points="220.899,16.306 221.789,16.663 
									222.408,15.929 222.343,16.886 223.232,17.248 222.301,17.482 222.232,18.439 221.722,17.626 220.791,17.856 
									221.405,17.119 								"/>
								<polygon id="XMLID_225_" style="clip-path:url(#XMLID_80_);fill:#F6DD25;" points="225.718,11.481 224.773,11.316 
									224.32,12.162 224.185,11.213 223.241,11.043 224.102,10.621 223.971,9.67 224.639,10.359 225.503,9.941 225.054,10.789 
																	"/>
								<polygon id="XMLID_224_" style="clip-path:url(#XMLID_80_);fill:#F6DD25;" points="223.712,15.78 224.006,14.866 
									223.231,14.3 224.191,14.298 224.49,13.386 224.788,14.299 225.747,14.301 224.972,14.866 225.266,15.78 224.489,15.218 
																	"/>
								<polygon id="XMLID_223_" style="clip-path:url(#XMLID_80_);fill:#F6DD25;" points="220.946,7.441 221.816,7.844 
									222.473,7.143 222.358,8.097 223.226,8.505 222.284,8.689 222.165,9.642 221.698,8.803 220.756,8.984 221.409,8.281 
																	"/>
							</g>
						</g>
						<g id="XMLID_475_" style="clip-path:url(#XMLID_57_);">
							<g id="XMLID_476_">
								<defs>
									<rect id="XMLID_215_" x="215.249" y="-5.402" width="19.86" height="11.585"/>
								</defs>
								<clipPath id="XMLID_82_">
									<use xlink:href="#XMLID_215_"  style="overflow:visible;"/>
								</clipPath>
								
									<rect id="XMLID_221_" x="215.249" y="-5.402" style="clip-path:url(#XMLID_82_);fill:#CB2128;" width="19.86" height="11.585"/>
								<polygon id="XMLID_220_" style="clip-path:url(#XMLID_82_);fill:#F6DD25;" points="217.16,-1.208 217.533,-2.365 
									216.552,-3.081 217.767,-3.084 218.146,-4.238 218.523,-3.083 219.738,-3.08 218.757,-2.364 219.129,-1.208 218.145,-1.92 
																	"/>
								<polygon id="XMLID_219_" style="clip-path:url(#XMLID_82_);fill:#F6DD25;" points="220.547,-0.583 220.957,-0.418 
									221.242,-0.756 221.212,-0.316 221.621,-0.149 221.193,-0.041 221.161,0.399 220.926,0.025 220.497,0.131 220.78,-0.209 
																	"/>
								<polygon id="XMLID_218_" style="clip-path:url(#XMLID_82_);fill:#F6DD25;" points="222.766,-2.805 222.331,-2.88 
									222.122,-2.491 222.06,-2.928 221.625,-3.007 222.022,-3.201 221.961,-3.639 222.269,-3.321 222.667,-3.514 222.46,-3.123 
																	"/>
								<polygon id="XMLID_217_" style="clip-path:url(#XMLID_82_);fill:#F6DD25;" points="221.842,-0.825 221.977,-1.246 
									221.62,-1.507 222.062,-1.508 222.2,-1.927 222.337,-1.507 222.779,-1.506 222.422,-1.246 222.558,-0.825 222.2,-1.084 
																	"/>
								<polygon id="XMLID_216_" style="clip-path:url(#XMLID_82_);fill:#F6DD25;" points="220.569,-4.665 220.969,-4.479 
									221.271,-4.802 221.219,-4.363 221.618,-4.175 221.185,-4.09 221.13,-3.652 220.915,-4.038 220.481,-3.954 220.782,-4.278 
																	"/>
							</g>
						</g>
					</g>
					<g id="XMLID_462_">
						<g id="XMLID_469_">
							<defs>
								<circle id="XMLID_195_" cx="222.468" cy="17.091" r="12.641"/>
							</defs>
							<clipPath id="XMLID_83_">
								<use xlink:href="#XMLID_195_"  style="overflow:visible;"/>
							</clipPath>
						</g>
						<linearGradient id="XMLID_84_" gradientUnits="userSpaceOnUse" x1="222.4507" y1="19.0794" x2="222.4778" y2="8.5041">
							<stop  offset="0" style="stop-color:#FFFFFF;stop-opacity:0"/>
							<stop  offset="1" style="stop-color:#FFFFFF"/>
						</linearGradient>
						<ellipse id="XMLID_212_" style="opacity:0.5;fill:url(#XMLID_84_);" cx="222.468" cy="12.242" rx="9.89" ry="6.924"/>
						<linearGradient id="XMLID_85_" gradientUnits="userSpaceOnUse" x1="222.6472" y1="13.606" x2="222.6472" y2="26.6251">
							<stop  offset="0.0056" style="stop-color:#DFE2E5"/>
							<stop  offset="0.2528" style="stop-color:#FFFCE6"/>
							<stop  offset="0.4163" style="stop-color:#EBE5D5"/>
							<stop  offset="0.5955" style="stop-color:#D5CCC0"/>
							<stop  offset="0.7865" style="stop-color:#EEEDEE"/>
							<stop  offset="1" style="stop-color:#D7D5BB"/>
						</linearGradient>
						<path id="XMLID_465_" style="fill:url(#XMLID_85_);" d="M208.738,16.986c0,4.36,2.007,8.251,5.147,10.801
							c-2.477-2.705-4.023-6.543-4.023-10.801c0-4.259,1.546-8.097,4.023-10.802C210.745,8.733,208.738,12.625,208.738,16.986z
							 M231.409,6.184c2.477,2.705,4.024,6.543,4.024,10.802c0,4.258-1.547,8.096-4.024,10.801c3.14-2.55,5.147-6.441,5.147-10.801
							C236.556,12.625,234.549,8.733,231.409,6.184z"/>
						<path id="XMLID_209_" style="fill:#FFFFFF;" d="M222.647,29.901c-7.124,0-12.915-5.763-13.055-12.572
							c-0.002,0.088-0.003,0.176-0.003,0.264c0,7.212,5.846,13.059,13.059,13.059c7.211,0,13.058-5.847,13.058-13.059
							c0-0.089-0.001-0.176-0.003-0.264C235.562,24.138,229.771,29.901,222.647,29.901z"/>
						<path id="XMLID_208_" style="fill:#FFFFFF;" d="M222.647,4.207c7.123,0,12.914,5.55,13.055,12.358
							c0.002-0.088,0.003-0.176,0.003-0.264c0-7.212-5.847-13.058-13.058-13.058c-7.212,0-13.059,5.847-13.059,13.058
							c0,0.088,0.001,0.176,0.003,0.264C209.733,9.756,215.523,4.207,222.647,4.207z"/>
					</g>
					
						<radialGradient id="XMLID_86_" cx="-246.9139" cy="-431.8687" r="60.2636" gradientTransform="matrix(0.2242 0.0826 -0.0821 0.2256 242.5345 134.9433)" gradientUnits="userSpaceOnUse">
						<stop  offset="0" style="stop-color:#FFFFFF"/>
						<stop  offset="0.0922" style="stop-color:#ECEAEA"/>
						<stop  offset="0.2372" style="stop-color:#CAC8C8"/>
						<stop  offset="0.4169" style="stop-color:#9B9898"/>
						<stop  offset="0.6243" style="stop-color:#646161"/>
						<stop  offset="0.8521" style="stop-color:#2E2D2C"/>
						<stop  offset="1" style="stop-color:#010101"/>
					</radialGradient>
					<path id="XMLID_207_" style="opacity:0.2;fill:url(#XMLID_86_);" d="M236.14,22.077c-2.733,7.509-10.999,11.368-18.462,8.619
						c-7.464-2.75-11.298-11.068-8.565-18.577c2.733-7.51,10.998-11.369,18.462-8.619C235.038,6.249,238.872,14.566,236.14,22.077z"
						/>
				</g>
				<g id="XMLID_420_" style="opacity:0.2;">
					<g id="XMLID_421_">
						<g id="XMLID_423_">
							<circle id="XMLID_78_" style="fill:#FFFFFF;" cx="222.575" cy="17" r="15"/>
							<circle id="XMLID_133_" style="fill:#EDECEC;" cx="222.575" cy="17" r="14.967"/>
							<circle id="XMLID_132_" style="fill:#E1E0DF;" cx="222.575" cy="17" r="14.935"/>
							<circle id="XMLID_123_" style="fill:#D6D4D4;" cx="222.575" cy="17" r="14.903"/>
							<circle id="XMLID_122_" style="fill:#CBC9C9;" cx="222.575" cy="17" r="14.871"/>
							<circle id="XMLID_121_" style="fill:#C1BFBF;" cx="222.575" cy="17" r="14.839"/>
							<circle id="XMLID_120_" style="fill:#B7B5B5;" cx="222.575" cy="17" r="14.806"/>
							<circle id="XMLID_119_" style="fill:#AEABAB;" cx="222.575" cy="17" r="14.774"/>
							<circle id="XMLID_118_" style="fill:#A5A2A2;" cx="222.575" cy="17" r="14.742"/>
							<circle id="XMLID_117_" style="fill:#9C9999;" cx="222.575" cy="17" r="14.71"/>
							<circle id="XMLID_116_" style="fill:#939090;" cx="222.575" cy="17" r="14.677"/>
							<circle id="XMLID_114_" style="fill:#8B8888;" cx="222.575" cy="17" r="14.645"/>
							<circle id="XMLID_113_" style="fill:#827F7F;" cx="222.575" cy="17" r="14.613"/>
							<circle id="XMLID_112_" style="fill:#7B7777;" cx="222.575" cy="17" r="14.581"/>
							<circle id="XMLID_111_" style="fill:#737070;" cx="222.575" cy="17" r="14.548"/>
							<circle id="XMLID_110_" style="fill:#6B6868;" cx="222.575" cy="17" r="14.516"/>
							<circle id="XMLID_109_" style="fill:#646161;" cx="222.575" cy="17" r="14.484"/>
							<circle id="XMLID_108_" style="fill:#5D5B5A;" cx="222.575" cy="17" r="14.452"/>
							<circle id="XMLID_107_" style="fill:#575454;" cx="222.575" cy="17" r="14.42"/>
							<circle id="XMLID_106_" style="fill:#514E4D;" cx="222.575" cy="17" r="14.387"/>
							<circle id="XMLID_102_" style="fill:#4A4847;" cx="222.575" cy="17" r="14.355"/>
							<circle id="XMLID_100_" style="fill:#444241;" cx="222.575" cy="17" r="14.323"/>
							<circle id="XMLID_99_" style="fill:#3E3C3C;" cx="222.575" cy="17" r="14.291"/>
							<circle id="XMLID_96_" style="fill:#383736;" cx="222.575" cy="17" r="14.258"/>
							<circle id="XMLID_95_" style="fill:#333131;" cx="222.575" cy="17" r="14.226"/>
							<circle id="XMLID_93_" style="fill:#2D2C2B;" cx="222.575" cy="17" r="14.194"/>
							<circle id="XMLID_92_" style="fill:#272626;" cx="222.575" cy="17" r="14.162"/>
							<circle id="XMLID_91_" style="fill:#212020;" cx="222.575" cy="17" r="14.13"/>
							<circle id="XMLID_90_" style="fill:#1A1A1A;" cx="222.575" cy="17" r="14.097"/>
							<circle id="XMLID_89_" style="fill:#131313;" cx="222.575" cy="17" r="14.065"/>
							<circle id="XMLID_81_" style="fill:#0B0B0B;" cx="222.575" cy="17" r="14.033"/>
							<circle id="XMLID_70_" style="fill:#010101;" cx="222.575" cy="17" r="14.001"/>
						</g>
						
							<radialGradient id="XMLID_87_" cx="-93.7689" cy="-134.83" r="65.6139" gradientTransform="matrix(0.2398 0 0 0.2398 245.0621 49.3347)" gradientUnits="userSpaceOnUse">
							<stop  offset="0" style="stop-color:#FFFFFF"/>
							<stop  offset="0.6923" style="stop-color:#FAFAFA"/>
							<stop  offset="1" style="stop-color:#CCCCCC"/>
						</radialGradient>
						<circle id="XMLID_203_" style="fill:url(#XMLID_87_);stroke:#231F20;stroke-width:0.1599;" cx="222.575" cy="17" r="14.001"/>
					</g>
				</g>
			</g>
			<g id="China_2_">
				<g id="XMLID_103_">
					<g id="XMLID_400_">
						<defs>
							<circle id="XMLID_178_" cx="222.647" cy="16.908" r="13.068"/>
						</defs>
						<clipPath id="XMLID_126_">
							<use xlink:href="#XMLID_178_"  style="overflow:visible;"/>
						</clipPath>
						<g id="XMLID_411_" style="clip-path:url(#XMLID_126_);">
							<g id="XMLID_412_">
								<defs>
									<rect id="XMLID_196_" x="209.393" y="5.995" width="43.133" height="25.16"/>
								</defs>
								<clipPath id="XMLID_128_">
									<use xlink:href="#XMLID_196_"  style="overflow:visible;"/>
								</clipPath>
								
									<rect id="XMLID_202_" x="209.393" y="5.995" style="clip-path:url(#XMLID_128_);fill:#CB2128;" width="43.133" height="25.16"/>
							</g>
						</g>
						<g id="XMLID_402_" style="clip-path:url(#XMLID_126_);">
							<g id="XMLID_403_">
								<defs>
									<rect id="XMLID_179_" x="215.249" y="-5.248" width="19.86" height="11.586"/>
								</defs>
								<clipPath id="XMLID_134_">
									<use xlink:href="#XMLID_179_"  style="overflow:visible;"/>
								</clipPath>
								
									<rect id="XMLID_187_" x="215.249" y="-5.248" style="clip-path:url(#XMLID_134_);fill:#CB2128;" width="19.86" height="11.586"/>
								<polygon id="XMLID_186_" style="clip-path:url(#XMLID_134_);fill:#F6DD25;" points="217.16,-1.055 217.533,-2.211 
									216.552,-2.927 217.767,-2.93 218.146,-4.084 218.523,-2.929 219.738,-2.926 218.756,-2.21 219.129,-1.054 218.145,-1.766 
																	"/>
								<polygon id="XMLID_185_" style="clip-path:url(#XMLID_134_);fill:#F6DD25;" points="220.547,-0.43 220.957,-0.265 
									221.242,-0.603 221.211,-0.162 221.621,0.005 221.192,0.112 221.161,0.553 220.926,0.179 220.497,0.284 220.78,-0.055 
																	"/>
								<polygon id="XMLID_184_" style="clip-path:url(#XMLID_134_);fill:#F6DD25;" points="222.766,-2.651 222.33,-2.727 
									222.122,-2.337 222.06,-2.775 221.625,-2.853 222.022,-3.047 221.961,-3.485 222.269,-3.168 222.667,-3.36 222.46,-2.97 
																	"/>
								<polygon id="XMLID_183_" style="clip-path:url(#XMLID_134_);fill:#F6DD25;" points="221.842,-0.672 221.977,-1.093 
									221.62,-1.353 222.062,-1.354 222.2,-1.774 222.337,-1.354 222.779,-1.353 222.422,-1.093 222.557,-0.672 222.2,-0.93 
																	"/>
								<polygon id="XMLID_182_" style="clip-path:url(#XMLID_134_);fill:#F6DD25;" points="220.568,-4.512 220.969,-4.326 
									221.271,-4.648 221.218,-4.209 221.618,-4.021 221.185,-3.936 221.13,-3.498 220.915,-3.884 220.481,-3.801 220.782,-4.125 
																	"/>
							</g>
						</g>
						<polygon id="XMLID_201_" style="clip-path:url(#XMLID_126_);fill:#F6DD25;" points="217.692,23.48 219.57,17.666 
							214.636,14.063 220.746,14.05 222.649,8.246 224.548,14.052 230.657,14.069 225.721,17.669 227.593,23.483 222.645,19.902 
													"/>
					</g>
					<g id="XMLID_105_">
						<g id="XMLID_396_">
							<defs>
								<circle id="XMLID_193_" cx="222.468" cy="17.244" r="12.641"/>
							</defs>
							<clipPath id="XMLID_136_">
								<use xlink:href="#XMLID_193_"  style="overflow:visible;"/>
							</clipPath>
						</g>
						<linearGradient id="XMLID_137_" gradientUnits="userSpaceOnUse" x1="222.4505" y1="19.2329" x2="222.4776" y2="8.6576">
							<stop  offset="0" style="stop-color:#FFFFFF;stop-opacity:0"/>
							<stop  offset="1" style="stop-color:#FFFFFF"/>
						</linearGradient>
						<ellipse id="XMLID_176_" style="opacity:0.3;fill:url(#XMLID_137_);" cx="222.468" cy="12.395" rx="9.89" ry="6.924"/>
						<linearGradient id="XMLID_138_" gradientUnits="userSpaceOnUse" x1="222.647" y1="13.7597" x2="222.647" y2="26.7788">
							<stop  offset="0.0056" style="stop-color:#DFE2E5"/>
							<stop  offset="0.2528" style="stop-color:#FFFCE6"/>
							<stop  offset="0.4163" style="stop-color:#EBE5D5"/>
							<stop  offset="0.5955" style="stop-color:#D5CCC0"/>
							<stop  offset="0.7865" style="stop-color:#EEEDEE"/>
							<stop  offset="1" style="stop-color:#D7D5BB"/>
						</linearGradient>
						<path id="XMLID_181_" style="fill:url(#XMLID_138_);" d="M208.738,17.139c0,4.36,2.007,8.251,5.147,10.801
							c-2.477-2.705-4.023-6.543-4.023-10.801c0-4.259,1.546-8.097,4.023-10.802C210.745,8.887,208.738,12.778,208.738,17.139z
							 M231.409,6.338c2.477,2.705,4.024,6.543,4.024,10.802c0,4.258-1.547,8.096-4.024,10.801c3.14-2.55,5.147-6.441,5.147-10.801
							C236.556,12.778,234.549,8.887,231.409,6.338z"/>
						<path id="XMLID_104_" style="fill:#FFFFFF;" d="M222.647,30.054c-7.124,0-12.915-5.763-13.055-12.572
							c-0.002,0.088-0.003,0.176-0.003,0.264c0,7.212,5.846,13.059,13.059,13.059c7.211,0,13.058-5.847,13.058-13.059
							c0-0.089-0.001-0.176-0.003-0.264C235.561,24.291,229.771,30.054,222.647,30.054z"/>
						<path id="XMLID_101_" style="fill:#FFFFFF;" d="M222.647,4.361c7.123,0,12.914,5.55,13.055,12.358
							c0.002-0.088,0.003-0.176,0.003-0.264c0-7.212-5.847-13.058-13.058-13.058c-7.212,0-13.059,5.846-13.059,13.058
							c0,0.088,0.001,0.176,0.003,0.264C209.732,9.91,215.523,4.361,222.647,4.361z"/>
					</g>
				</g>
			</g>
		</g>
		<g id="UK" style="display:inline;">
			<g id="XMLID_425_">
				<defs>
					<circle id="XMLID_192_" cx="183.716" cy="16.662" r="13.618"/>
				</defs>
				<clipPath id="XMLID_139_">
					<use xlink:href="#XMLID_192_"  style="overflow:visible;"/>
				</clipPath>
				<g id="XMLID_428_" style="clip-path:url(#XMLID_139_);">
					<g id="XMLID_429_">
						<defs>
							<rect id="XMLID_387_" x="162.315" y="2.219" width="49.515" height="28.884"/>
						</defs>
						<clipPath id="XMLID_140_">
							<use xlink:href="#XMLID_387_"  style="overflow:visible;"/>
						</clipPath>
						
							<rect id="XMLID_405_" x="162.315" y="2.219" style="clip-path:url(#XMLID_140_);fill:#FFFFFF;" width="49.515" height="28.884"/>
						<polygon id="XMLID_404_" style="clip-path:url(#XMLID_140_);fill:#BD1F38;" points="195.469,12.663 211.829,3.505 
							211.829,2.219 210.699,2.219 192.045,12.663 						"/>
						<polygon id="XMLID_401_" style="clip-path:url(#XMLID_140_);fill:#BD1F38;" points="194.695,21.241 211.829,30.828 
							211.829,28.911 198.119,21.241 						"/>
						<polygon id="XMLID_399_" style="clip-path:url(#XMLID_140_);fill:#BD1F38;" points="162.315,4.42 176.97,12.663 
							180.395,12.663 162.315,2.5 						"/>
						<polygon id="XMLID_398_" style="clip-path:url(#XMLID_140_);fill:#BD1F38;" points="179.62,21.241 162.315,30.936 
							162.315,31.103 165.439,31.103 183.044,21.241 						"/>
						<polygon id="XMLID_397_" style="clip-path:url(#XMLID_140_);fill:#2C3178;" points="208.442,2.219 191.105,2.219 
							191.105,11.93 						"/>
						<polygon id="XMLID_395_" style="clip-path:url(#XMLID_140_);fill:#2C3178;" points="183.449,2.219 166.182,2.219 
							183.449,11.93 						"/>
						<polygon id="XMLID_394_" style="clip-path:url(#XMLID_140_);fill:#2C3178;" points="211.829,12.663 211.829,6.037 
							200.069,12.663 						"/>
						<polygon id="XMLID_393_" style="clip-path:url(#XMLID_140_);fill:#2C3178;" points="211.829,27.795 211.829,21.241 
							200.069,21.241 						"/>
						<polygon id="XMLID_392_" style="clip-path:url(#XMLID_140_);fill:#2C3178;" points="167.162,31.103 183.449,31.103 
							183.449,21.975 						"/>
						<polygon id="XMLID_391_" style="clip-path:url(#XMLID_140_);fill:#2C3178;" points="191.105,31.103 207.443,31.103 
							191.105,21.975 						"/>
						<polygon id="XMLID_390_" style="clip-path:url(#XMLID_140_);fill:#2C3178;" points="162.315,21.241 162.315,28.09 
							174.484,21.241 						"/>
						<polygon id="XMLID_389_" style="clip-path:url(#XMLID_140_);fill:#2C3178;" points="162.315,12.663 174.484,12.663 
							162.315,5.803 						"/>
						<polygon id="XMLID_388_" style="clip-path:url(#XMLID_140_);fill:#BD1F38;" points="184.98,2.219 184.98,14.379 
							162.315,14.379 162.315,19.526 184.98,19.526 184.98,31.103 189.574,31.103 189.574,19.526 211.829,19.526 211.829,14.379 
							189.574,14.379 189.574,2.219 						"/>
					</g>
				</g>
			</g>
			<g id="XMLID_406_">
				<g id="XMLID_417_">
					<defs>
						<circle id="XMLID_415_" cx="183.53" cy="17.013" r="13.172"/>
					</defs>
					<clipPath id="XMLID_141_">
						<use xlink:href="#XMLID_415_"  style="overflow:visible;"/>
					</clipPath>
				</g>
				<linearGradient id="XMLID_142_" gradientUnits="userSpaceOnUse" x1="183.5116" y1="19.085" x2="183.5399" y2="8.0652">
					<stop  offset="0" style="stop-color:#FFFFFF;stop-opacity:0"/>
					<stop  offset="1" style="stop-color:#FFFFFF"/>
				</linearGradient>
				<ellipse id="XMLID_190_" style="opacity:0.3;fill:url(#XMLID_142_);" cx="183.53" cy="11.96" rx="10.305" ry="7.215"/>
				<linearGradient id="XMLID_143_" gradientUnits="userSpaceOnUse" x1="183.7162" y1="13.3813" x2="183.7162" y2="26.9477">
					<stop  offset="0.0056" style="stop-color:#DFE2E5"/>
					<stop  offset="0.2528" style="stop-color:#FFFCE6"/>
					<stop  offset="0.4163" style="stop-color:#EBE5D5"/>
					<stop  offset="0.5955" style="stop-color:#D5CCC0"/>
					<stop  offset="0.7865" style="stop-color:#EEEDEE"/>
					<stop  offset="1" style="stop-color:#D7D5BB"/>
				</linearGradient>
				<path id="XMLID_409_" style="fill:url(#XMLID_143_);" d="M169.223,16.903c0,4.543,2.092,8.598,5.363,11.255
					c-2.581-2.819-4.192-6.818-4.192-11.255c0-4.437,1.611-8.437,4.192-11.256C171.315,8.304,169.223,12.359,169.223,16.903z
					 M192.847,5.647c2.581,2.819,4.192,6.818,4.192,11.256c0,4.437-1.612,8.436-4.192,11.255c3.272-2.657,5.363-6.712,5.363-11.255
					C198.21,12.359,196.118,8.304,192.847,5.647z"/>
				<path id="XMLID_180_" style="fill:#FFFFFF;" d="M183.716,30.361c-7.423,0-13.457-6.005-13.604-13.1
					c-0.002,0.091-0.003,0.183-0.003,0.275c0,7.515,6.092,13.608,13.607,13.608c7.515,0,13.607-6.093,13.607-13.608
					c0-0.092-0.001-0.184-0.003-0.275C197.173,24.356,191.139,30.361,183.716,30.361z"/>
				<path id="XMLID_173_" style="fill:#FFFFFF;" d="M183.716,3.587c7.423,0,13.457,5.783,13.604,12.877
					c0.002-0.091,0.003-0.183,0.003-0.275c0-7.515-6.092-13.607-13.607-13.607c-7.515,0-13.607,6.092-13.607,13.607
					c0,0.092,0.001,0.184,0.003,0.275C170.259,9.37,176.293,3.587,183.716,3.587z"/>
			</g>
			
				<radialGradient id="XMLID_144_" cx="66.5299" cy="-385.7485" r="15.0592" gradientTransform="matrix(0.9351 0.3445 -0.3424 0.9409 -10.5397 357.0313)" gradientUnits="userSpaceOnUse">
				<stop  offset="0" style="stop-color:#FFFFFF"/>
				<stop  offset="0.0922" style="stop-color:#ECEAEA"/>
				<stop  offset="0.2372" style="stop-color:#CAC8C8"/>
				<stop  offset="0.4169" style="stop-color:#9B9898"/>
				<stop  offset="0.6243" style="stop-color:#646161"/>
				<stop  offset="0.8521" style="stop-color:#2E2D2C"/>
				<stop  offset="1" style="stop-color:#010101"/>
			</radialGradient>
			<path id="XMLID_171_" style="opacity:0.2;fill:url(#XMLID_144_);" d="M197.834,22.188c-2.848,7.825-11.461,11.847-19.238,8.981
				c-7.777-2.866-11.773-11.533-8.925-19.358c2.848-7.826,11.46-11.847,19.237-8.981C196.686,5.696,200.682,14.363,197.834,22.188z"
				/>
		</g>
	</g>
</g>
</svg>
